<svg xmlns="http://www.w3.org/2000/svg" width="25.79" height="32.965" viewBox="0 0 25.79 32.965">
  <g id="Group_3018" data-name="Group 3018" transform="translate(0 0)">
    <g id="Group_3050" data-name="Group 3050" transform="translate(0 0)">
      <path id="Path_2945" data-name="Path 2945" d="M25.79,7.6a1.107,1.107,0,0,0-.659-1.1Q20.9,4.264,16.688,2.007l-.837-.447C15.2,1.215,14.56.865,13.915.516L13,.02,12.485,0l-.079.057a.461.461,0,0,1-.048.034L9.849,1.467Q5.224,4,.6,6.532A1.038,1.038,0,0,0,0,7.542q.006,1.545,0,3.09c0,1.611,0,3.278.016,4.916a20.544,20.544,0,0,0,.244,3.166,17.668,17.668,0,0,0,7.145,11.6,22.585,22.585,0,0,0,4.961,2.6.769.769,0,0,0,.284.049,1.278,1.278,0,0,0,.443-.084c.467-.181.93-.386,1.38-.585l.441-.194A17.885,17.885,0,0,0,25.781,15.508v-2.3c0-1.871,0-3.742.009-5.612m-1.557,4.71h-.044v.165c0,.442.006.886.013,1.328.014.953.027,1.939-.026,2.9a15.882,15.882,0,0,1-3.818,9.517,17.216,17.216,0,0,1-6.675,4.751,2.2,2.2,0,0,1-1.969.005A16.638,16.638,0,0,1,4.448,25.1a16.229,16.229,0,0,1-2.887-9.316q-.006-2.087,0-4.173,0-1.82,0-3.642a.248.248,0,0,1,.159-.276Q7.14,4.733,12.553,1.751a.369.369,0,0,1,.181-.057.4.4,0,0,1,.187.058q5.562,2.975,11.133,5.931a.292.292,0,0,1,.183.323c-.008,1.117-.007,2.234-.006,3.351Z" transform="translate(0)" fill="#e35414"/>
      <path id="Path_2946" data-name="Path 2946" d="M21.942,19.353a1.158,1.158,0,0,0-.449.25q-2.165,1.754-4.325,3.514l-2.486,2.022-1-1.163q-.845-.991-1.693-1.98a.885.885,0,0,0-.608-.327.725.725,0,0,0-.551.2.779.779,0,0,0-.015,1.138q1.558,1.834,3.125,3.661a.818.818,0,0,0,.619.331.93.93,0,0,0,.554-.214c.053-.04.1-.081.155-.122l6.141-5c.385-.312.77-.624,1.15-.941a.749.749,0,0,0,.224-.972.728.728,0,0,0-.846-.4" transform="translate(-3.598 -6.574)" fill="#fea400"/>
    </g>
  </g>
</svg>
