<svg xmlns="http://www.w3.org/2000/svg" width="46" height="46" viewBox="0 0 46 46">
  <g id="Group_2899" data-name="Group 2899" transform="translate(-32 -202)">
    <g id="Ellipse_423" data-name="Ellipse 423" transform="translate(32 202)" fill="#FFF2EC" stroke="#e45415" stroke-width="1">
      <circle cx="23" cy="23" r="23" stroke="none"/>
      <circle cx="23" cy="23" r="22.5" fill="none"/>
    </g>
    <g id="bank" transform="translate(-771.311 -175.551)">
      <path id="Path_2779" data-name="Path 2779" d="M826.748,397.358q-5.169,0-10.337-.006a1.441,1.441,0,0,1-.655-.13.872.872,0,0,1,.02-1.531q2.028-1.36,4.063-2.71l6.254-4.17a.949.949,0,0,1,1.3,0q5.111,3.4,10.215,6.819a1.433,1.433,0,0,1,.516.61.831.831,0,0,1-.629,1.085,2.277,2.277,0,0,1-.47.037Q831.886,397.359,826.748,397.358Zm9.236-1.29c-.093-.07-.123-.1-.156-.118q-4.445-2.965-8.888-5.933a.312.312,0,0,0-.414.021q-4.344,2.9-8.693,5.8c-.094.062-.184.131-.325.231Z" transform="translate(0)" fill="#e45415"/>
      <path id="Path_2780" data-name="Path 2780" d="M834.705,639.764c-2.933,0-5.866.006-8.8,0a1.894,1.894,0,1,1,.017-3.788q2.77-.006,5.54,0,6.029,0,12.058,0a1.895,1.895,0,1,1,.043,3.789c-1.946.007-3.891,0-5.836,0Zm.014-1.259h8.559c.1,0,.2,0,.3,0a.634.634,0,1,0-.013-1.268c-.069,0-.138,0-.207,0H826.12c-.562,0-.858.216-.863.628s.3.645.876.645Z" transform="translate(-7.991 -227.875)" fill="#e45415"/>
      <path id="Path_2781" data-name="Path 2781" d="M855.956,520.106v-3.228a2.278,2.278,0,0,1,.01-.3.628.628,0,0,1,1.252-.017,1.755,1.755,0,0,1,.012.265q0,3.273,0,6.545a1.645,1.645,0,0,1-.024.324.622.622,0,0,1-1.228-.012,1.767,1.767,0,0,1-.021-.324Q855.955,521.734,855.956,520.106Z" transform="translate(-37.434 -117.38)" fill="#fea400"/>
      <path id="Path_2782" data-name="Path 2782" d="M1047.989,520.057c0-1.115,0-2.231,0-3.346,0-.484.315-.8.721-.733a.586.586,0,0,1,.523.492,2.354,2.354,0,0,1,.028.442q0,3.169,0,6.338c0,.1,0,.2,0,.3a.633.633,0,1,1-1.266.006c-.008-.089,0-.178,0-.266Q1047.99,521.672,1047.989,520.057Z" transform="translate(-214.295 -117.352)" fill="#fea400"/>
      <path id="Path_2783" data-name="Path 2783" d="M984.032,520.056c0-1.145,0-2.29,0-3.435a.629.629,0,0,1,.939-.6.674.674,0,0,1,.319.654c0,1.2,0,2.409,0,3.612,0,1.047,0,2.093,0,3.139a.655.655,0,0,1-.332.645.625.625,0,0,1-.926-.585c-.01-.878,0-1.757,0-2.635Q984.031,520.457,984.032,520.056Z" transform="translate(-155.39 -117.324)" fill="#fea400"/>
      <path id="Path_2784" data-name="Path 2784" d="M920.088,520.059c0-1.145-.005-2.29,0-3.435a.623.623,0,0,1,.909-.607.616.616,0,0,1,.345.579q0,3.45,0,6.9a.628.628,0,1,1-1.254,0C920.084,522.349,920.088,521.2,920.088,520.059Z" transform="translate(-96.498 -117.328)" fill="#fea400"/>
    </g>
  </g>
</svg>
