<svg xmlns="http://www.w3.org/2000/svg" width="31.702" height="40.077" viewBox="0 0 31.702 40.077">
  <g id="electricity" transform="translate(-805.408 -344.633)">
    <path id="Path_2813" data-name="Path 2813" d="M874.894,444.244h-3.109c-.743,0-1.012-.234-1.081-.977-.083-.895-.079-1.8-.205-2.685a13.379,13.379,0,0,0-2.58-6.192,15.154,15.154,0,0,1-2.064-3.278,9.749,9.749,0,0,1,3.614-11.667,9.512,9.512,0,0,1,11.3.3,9.38,9.38,0,0,1,3.795,8.855,9.185,9.185,0,0,1-1.9,4.757,18.056,18.056,0,0,0-2.58,4.389,13.393,13.393,0,0,0-.953,5.149,2.97,2.97,0,0,1-.023.449.865.865,0,0,1-.992.9c-.654.013-1.309,0-1.963,0Zm-2.516-1.724h5.053c.01-.141.018-.25.023-.358a15.822,15.822,0,0,1,1.23-5.43,22.57,22.57,0,0,1,2.765-4.567,7.622,7.622,0,0,0,1.335-6.325,8.005,8.005,0,0,0-12.383-4.988,8.093,8.093,0,0,0-3.374,8.286,9.074,9.074,0,0,0,1.929,3.829,15.435,15.435,0,0,1,2.706,5.14,16.6,16.6,0,0,1,.715,4.415Z" transform="translate(-53.662 -65.612)" fill="#e45415"/>
    <path id="Path_2814" data-name="Path 2814" d="M923.049,689.606c-1.076,0-2.152.008-3.229,0-.753-.007-1.175-.5-.971-1.1a.838.838,0,0,1,.884-.584h6.621a.843.843,0,1,1,0,1.678c-.817.023-1.634.007-2.452.007Z" transform="translate(-101.795 -308.11)" fill="#e45415"/>
    <path id="Path_2815" data-name="Path 2815" d="M934.925,720.777c-.667,0-1.335.006-2,0a.771.771,0,0,1-.822-.486,1.092,1.092,0,0,1,.08-.828,1.066,1.066,0,0,1,.756-.364c1.335-.036,2.671-.024,4.006-.013a.85.85,0,1,1-.015,1.69C936.259,720.786,935.593,720.777,934.925,720.777Z" transform="translate(-113.693 -336.074)" fill="#e45415"/>
    <path id="Path_2816" data-name="Path 2816" d="M852.117,390.428a.857.857,0,0,1-1.168.864,1.282,1.282,0,0,1-.364-.257c-.64-.631-1.277-1.263-1.9-1.906a.85.85,0,0,1-.062-1.265.832.832,0,0,1,1.235.069c.664.645,1.32,1.3,1.958,1.967A2.131,2.131,0,0,1,852.117,390.428Z" transform="translate(-38.575 -38.587)" fill="#fea400"/>
    <path id="Path_2817" data-name="Path 2817" d="M1036.116,391.443a3.852,3.852,0,0,1-.674-.5.668.668,0,0,1-.017-.838,3.03,3.03,0,0,1,.4-.464c.565-.571,1.13-1.141,1.7-1.7a.85.85,0,1,1,1.2,1.168c-.636.653-1.278,1.3-1.943,1.932a3.755,3.755,0,0,1-.665.4Z" transform="translate(-206.341 -38.574)" fill="#fea400"/>
    <path id="Path_2818" data-name="Path 2818" d="M953.639,346.966c0,.463.012.925,0,1.388a.826.826,0,0,1-.822.88.815.815,0,0,1-.836-.862q-.025-1.428,0-2.855a.833.833,0,1,1,1.661.023C953.65,346.015,953.639,346.49,953.639,346.966Z" transform="translate(-131.559)" fill="#fea400"/>
    <path id="Path_2819" data-name="Path 2819" d="M807.7,491.241c.463,0,.925-.011,1.386,0a.834.834,0,0,1,.9.84.818.818,0,0,1-.88.821q-1.428.023-2.855,0a.83.83,0,1,1,.017-1.66C806.748,491.229,807.219,491.241,807.7,491.241Z" transform="translate(0 -131.586)" fill="#fea400"/>
    <path id="Path_2820" data-name="Path 2820" d="M1072.29,492.882c-.449,0-.9.01-1.345,0a.84.84,0,0,1-.924-.823.827.827,0,0,1,.9-.84q1.407-.022,2.814,0a.842.842,0,0,1,.89.819.858.858,0,0,1-.908.85h-1.428Z" transform="translate(-237.516 -131.558)" fill="#fea400"/>
    <g id="Group_2920" data-name="Group 2920" transform="translate(817.61 359.982)">
      <path id="Path_2278" data-name="Path 2278" d="M1311.605,3859.147l.729-3.441h-3.312l1.89-4.827" transform="translate(-1309.022 -3850.88)" fill="none" stroke="#fea400" stroke-linecap="round" stroke-linejoin="round" stroke-width="0.8"/>
      <path id="Path_2280" data-name="Path 2280" d="M1322.093,3862.69h2.264l-4.1,5.555" transform="translate(-1317.681 -3859.978)" fill="none" stroke="#fea400" stroke-linecap="round" stroke-linejoin="round" stroke-width="0.8"/>
      <path id="Path_2281" data-name="Path 2281" d="M1317.25,3850.88h3.479l-.955,2.712" transform="translate(-1315.362 -3850.88)" fill="none" stroke="#fea400" stroke-linecap="round" stroke-linejoin="round" stroke-width="0.8"/>
    </g>
  </g>
</svg>
