<svg xmlns="http://www.w3.org/2000/svg" width="39.342" height="32.775" viewBox="0 0 39.342 32.775">
  <g id="Group_5835" data-name="Group 5835" transform="translate(0.1 0.1)">
    <g id="Group_5836" data-name="Group 5836">
      <path id="Path_4932" data-name="Path 4932" d="M0,29.553c.183-.263.383-.516.542-.794a1,1,0,0,0,.108-.475q.009-4.87,0-9.74a1.569,1.569,0,0,1,.4-1.2,1.387,1.387,0,0,1,1.051-.377c2.178.006,4.356,0,6.534,0h.483a2.775,2.775,0,0,1,.6-2.142,2.5,2.5,0,0,1,2-.583c.688-4.285,3.065-6.761,7.154-7.474a.161.161,0,0,0,.029-.059c.057-.805.056-.806-.675-1.09q-1.536-.6-3.072-1.2a1.048,1.048,0,0,1-.8-1.035,1.047,1.047,0,0,1,.789-1.041c1.142-.447,2.285-.895,3.43-1.333.2-.078.339-.157.362-.425A.621.621,0,0,1,19.588,0a.655.655,0,0,1,.625.63,4.284,4.284,0,0,1,.012.476c0,1.881,0,3.761,0,5.694A7.788,7.788,0,0,1,25.1,9.179a8.316,8.316,0,0,1,2.276,5.068,2.541,2.541,0,0,1,2.043.583,2.773,2.773,0,0,1,.6,2.142h6.9c1.091,0,1.564.485,1.565,1.612q0,4.81,0,9.621a.83.83,0,0,0,.274.726,2.4,2.4,0,0,1,.385.622v1.988a1.745,1.745,0,0,1-.994,1.034H.994A1.735,1.735,0,0,1,0,31.541V29.553m23.48-1.065v-.442c0-1.63,0-3.26,0-4.89a2.046,2.046,0,0,1,1.376-2.025,1.955,1.955,0,0,1,2.529,1.945c.024,1.643.007,3.286.007,4.93v.477h1.935a.949.949,0,0,0,.025-.141q0-3.26,0-6.52a.87.87,0,0,0-.428-.744q-4.553-3.315-9.1-6.64a.375.375,0,0,0-.53,0q-4.526,3.32-9.065,6.619a1,1,0,0,0-.457.891c.013,2.067.006,4.135.007,6.2,0,.113.016.227.024.34h1.937V28c0-1.617-.006-3.233,0-4.85a2.012,2.012,0,0,1,1.372-2.021,1.975,1.975,0,0,1,2.536,1.993c.016,1.643,0,3.286,0,4.93v.435h1.946V28q0-2.982,0-5.963a4.631,4.631,0,0,1,.043-.673,1.959,1.959,0,0,1,1.825-1.674,1.994,1.994,0,0,1,2.053,2.153c.01,2.054,0,4.108,0,6.162v.485ZM10.469,16.971c.914,0,1.8.017,2.691-.011a1.39,1.39,0,0,0,.732-.234c1.595-1.14,3.173-2.3,4.758-3.459a1.334,1.334,0,0,1,1.853.005c1.45,1.056,2.914,2.09,4.339,3.18a2.314,2.314,0,0,0,1.649.529c.72-.046,1.444-.011,2.158-.011.178-1.06-.092-1.415-.984-1.366-.724.04-1.452.018-2.177,0a.672.672,0,0,1-.7-.686.663.663,0,0,1,.674-.662c.187-.01.375,0,.564,0a6.569,6.569,0,0,0-6.595-6.11,6.566,6.566,0,0,0-6.312,6.117,6.3,6.3,0,0,1,.643,0,.646.646,0,0,1,.561.819.683.683,0,0,1-.757.526c-.8,0-1.6,0-2.407,0a.607.607,0,0,0-.683.5,5.019,5.019,0,0,0-.009.858M8.483,28.49v-.461c0-2.066,0-4.133,0-6.2a2.1,2.1,0,0,1,.887-1.792c.5-.367,1-.728,1.5-1.093.243-.178.483-.359.783-.581H1.99V28.49ZM37.159,18.366h-9.67c.785.575,1.5,1.108,2.222,1.624a2.182,2.182,0,0,1,.952,1.917c-.012,2.053,0,4.106,0,6.159v.413h6.5ZM1.32,31.191h36.5v-1.3H1.32Zm18.874-2.7c.012-.117.03-.207.03-.3q0-3.159,0-6.319a1.294,1.294,0,0,0-.039-.353.633.633,0,0,0-1.232.018,1.646,1.646,0,0,0-.035.394q0,3.1,0,6.2c0,.115.016.231.025.358Zm-5.835,0c0-.675,0-1.307,0-1.94,0-1.125.005-2.25,0-3.375,0-.5-.312-.822-.717-.781-.367.038-.582.317-.583.789q-.006,2.5,0,5a2.5,2.5,0,0,0,.037.3Zm11.73-.01v-.464q0-2.025,0-4.05c0-.331.013-.663-.016-.992a.631.631,0,0,0-1.231-.136,1.217,1.217,0,0,0-.055.388q-.005,2.482,0,4.963c0,.09.013.179.021.29ZM18.9,4.437l-.034-2.093-2.679,1.05c.953.371,1.826.7,2.713,1.043" transform="translate(0 0)" fill="#e45415" stroke="#fff" stroke-width="0.2"/>
      <path id="Path_4935" data-name="Path 4935" d="M33.325,231.828c0,.238.018.478,0,.714a.669.669,0,0,1-.653.647.659.659,0,0,1-.636-.7c-.012-.449-.013-.9,0-1.349a.624.624,0,0,1,.588-.654.648.648,0,0,1,.7.586.709.709,0,0,1,.011.118c0,.212,0,.423,0,.635h0" transform="translate(-28.758 -206.043)" fill="#fea400"/>
      <path id="Path_4936" data-name="Path 4936" d="M57.65,231.805c0-.225-.01-.451,0-.675a.629.629,0,0,1,.6-.641.61.61,0,0,1,.674.56,12.115,12.115,0,0,1,0,1.546.642.642,0,0,1-.655.6.663.663,0,0,1-.625-.67c-.012-.238,0-.476,0-.715" transform="translate(-51.77 -206.045)" fill="#fea400"/>
      <path id="Path_4937" data-name="Path 4937" d="M32.083,193.336c0-.238-.014-.477,0-.714a.64.64,0,0,1,.592-.614.6.6,0,0,1,.662.525,10.184,10.184,0,0,1,0,1.659.569.569,0,0,1-.665.512.622.622,0,0,1-.587-.614c-.017-.25,0-.5,0-.754" transform="translate(-28.808 -171.644)" fill="#fea400"/>
      <path id="Path_4938" data-name="Path 4938" d="M57.648,193.358c0-.225-.009-.45,0-.675a.655.655,0,0,1,.618-.674.628.628,0,0,1,.662.582,12.114,12.114,0,0,1,0,1.546.617.617,0,0,1-.667.572.64.64,0,0,1-.609-.637c-.014-.237,0-.476,0-.714h0" transform="translate(-51.768 -171.646)" fill="#fea400"/>
      <path id="Path_4939" data-name="Path 4939" d="M340.436,231.826c0,.238.012.477,0,.714a.654.654,0,0,1-.6.648.63.63,0,0,1-.668-.576,11.113,11.113,0,0,1,.006-1.584.6.6,0,0,1,.686-.539.622.622,0,0,1,.578.622c.016.237,0,.476,0,.714" transform="translate(-304.567 -206.045)" fill="#fea400"/>
      <path id="Path_4940" data-name="Path 4940" d="M314.8,231.846c0,.225.01.451,0,.675a.663.663,0,0,1-.628.668.644.644,0,0,1-.654-.6,12.931,12.931,0,0,1,0-1.507.623.623,0,0,1,.683-.6.629.629,0,0,1,.6.644c.013.237,0,.476,0,.715" transform="translate(-281.539 -206.044)" fill="#fea400"/>
      <path id="Path_4941" data-name="Path 4941" d="M314.794,193.375c0,.225.01.451,0,.675a.644.644,0,0,1-.626.662.636.636,0,0,1-.661-.628,13.464,13.464,0,0,1,0-1.468.635.635,0,0,1,.681-.6.647.647,0,0,1,.6.649c.014.237,0,.476,0,.715" transform="translate(-281.532 -171.648)" fill="#fea400"/>
      <path id="Path_4942" data-name="Path 4942" d="M340.511,193.341c0,.251.014.5,0,.754a.628.628,0,0,1-.588.614.589.589,0,0,1-.665-.516,10.808,10.808,0,0,1,0-1.659.6.6,0,0,1,.664-.522.638.638,0,0,1,.591.615c.017.237,0,.476,0,.714" transform="translate(-304.644 -171.647)" fill="#fea400"/>
    </g>
  </g>
</svg>
