<svg xmlns="http://www.w3.org/2000/svg" width="31.121" height="31.126" viewBox="0 0 31.121 31.126">
  <g id="Group_3006" data-name="Group 3006" transform="translate(0 0)">
    <g id="Group_3083" data-name="Group 3083" transform="translate(0 0)">
      <path id="Path_2927" data-name="Path 2927" d="M31.12,14.162c-.333.488-.572.522-1.087.238a6.5,6.5,0,0,0-6.785.043.811.811,0,0,1-.925-.055,5.853,5.853,0,0,0-5.745-.3.61.61,0,0,0-.423.652c.015,4.416.009,8.833.011,13.249a1.822,1.822,0,1,0,3.642.138c.016-.79,0-1.58.005-2.371,0-.439.244-.716.613-.713a.621.621,0,0,1,.6.694c0,.79.009,1.581,0,2.371a3.032,3.032,0,0,1-5.977.7,3.986,3.986,0,0,1-.095-.932q-.009-6.609,0-13.218a.5.5,0,0,0-.328-.525,5.8,5.8,0,0,0-5.745.2,1.048,1.048,0,0,1-1.191.007,6.486,6.486,0,0,0-6.627.063.725.725,0,0,1-.709.122.64.64,0,0,1-.35-.735A14.3,14.3,0,0,1,2.362,7.139,15.716,15.716,0,0,1,12.666.277C13.22.164,13.789.128,14.35.054c.1-.013.2-.036.3-.054h1.824A1.772,1.772,0,0,0,16.7.05,15.008,15.008,0,0,1,23,1.89,15.219,15.219,0,0,1,30.842,12.1c.117.5.186,1.009.278,1.513ZM14.95,1.287a3.539,3.539,0,0,0-1.461.609,8.174,8.174,0,0,0-2.609,3.22,19.236,19.236,0,0,0-1.825,6.415c-.055.445-.089.893-.137,1.389a7.249,7.249,0,0,1,6.033.01V12.6c0-.739,0-1.478,0-2.217a.608.608,0,1,1,1.212.006c.005.223,0,.445,0,.669v1.876a7.254,7.254,0,0,1,6.042-.007c-.073-.653-.126-1.254-.209-1.85a18.8,18.8,0,0,0-1.766-5.963,8.257,8.257,0,0,0-2.562-3.184,3.7,3.7,0,0,0-1.506-.645v.356c0,1.255,0,2.511,0,3.767a.61.61,0,1,1-1.213,0c-.005-.658,0-1.317,0-1.975V1.287m4.439.453c2.854,3.234,3.656,7.132,4.046,11.2a8.154,8.154,0,0,1,6.317-.073,13.372,13.372,0,0,0-2.808-6.116A14.856,14.856,0,0,0,19.389,1.74M7.7,12.947c.028-.328.05-.621.08-.913a22.36,22.36,0,0,1,1.591-6.58A12.289,12.289,0,0,1,11.7,1.777a14.624,14.624,0,0,0-7.96,5.548,13.1,13.1,0,0,0-2.369,5.545,8.183,8.183,0,0,1,6.331.078" transform="translate(0 0)" fill="#e45415"/>
      <path id="Path_2928" data-name="Path 2928" d="M21.091,10a.605.605,0,1,1-.6.593.613.613,0,0,1,.6-.593" transform="translate(-5.535 -2.7)" fill="#fea400"/>
    </g>
  </g>
</svg>
