<svg id="Group_2989" data-name="Group 2989" xmlns="http://www.w3.org/2000/svg" xmlns:xlink="http://www.w3.org/1999/xlink" width="17.957" height="26.795" viewBox="0 0 17.957 26.795">
  <defs>
    <clipPath id="clip-path">
      <rect id="Rectangle_408" data-name="Rectangle 408" width="17.957" height="26.795" fill="#fea400"/>
    </clipPath>
  </defs>
  <g id="Group_2988" data-name="Group 2988" clip-path="url(#clip-path)">
    <path id="Path_2898" data-name="Path 2898" d="M58.379,21.47a2.189,2.189,0,1,0,2.189,2.189,2.191,2.191,0,0,0-2.189-2.189m0,3.411A1.222,1.222,0,1,1,59.6,23.659a1.224,1.224,0,0,1-1.222,1.222" transform="translate(-49.4 -18.876)" fill="#fea400"/>
    <path id="Path_2899" data-name="Path 2899" d="M13.361,2.87a4.781,4.781,0,0,0-8.765,0H0v3.1H4.344a4.8,4.8,0,0,0,2.3,2.987,7.941,7.941,0,0,0-5.588,7.574v7.927H6.79v.153a2.189,2.189,0,1,0,4.378,0v-.153h5.738V21.211h-.967v2.275h-1.9V20.394H13.07v3.093h-1.9V18.351a2.189,2.189,0,1,0-4.378,0v5.136h-1.9V20.394H3.92v3.093h-1.9v-6.96a6.963,6.963,0,0,1,.14-1.392H7.273v-.967H2.43a6.96,6.96,0,0,1,13.509,2.359v1.632h.967V16.527a7.935,7.935,0,0,0-5.584-7.576,4.8,4.8,0,0,0,2.292-2.985h4.344V2.87Zm-5.6,15.481a1.222,1.222,0,1,1,2.444,0v6.256a1.222,1.222,0,1,1-2.444,0ZM4.186,5H.967V3.837H4.186ZM8.979,8.6A3.816,3.816,0,1,1,12.8,4.783,3.821,3.821,0,0,1,8.979,8.6M16.991,5H13.772V3.837h3.219Z" fill="#e45415"/>
    <path id="Path_2900" data-name="Path 2900" d="M131.8,159.436a.564.564,0,1,0,.564.564.564.564,0,0,0-.564-.564" transform="translate(-115.382 -140.17)" fill="#fea400"/>
    <rect id="Rectangle_405" data-name="Rectangle 405" width="1.933" height="0.967" transform="translate(8.33 14.168)" fill="#fea400"/>
    <rect id="Rectangle_406" data-name="Rectangle 406" width="0.967" height="1.11" transform="translate(13.07 18.156)" fill="#fea400"/>
    <rect id="Rectangle_407" data-name="Rectangle 407" width="0.967" height="1.11" transform="translate(3.92 18.156)" fill="#fea400"/>
  </g>
</svg>
