<svg xmlns="http://www.w3.org/2000/svg" width="34.103" height="25.914" viewBox="0 0 34.103 25.914">
  <g id="router" transform="translate(-755.822 -385.01)">
    <path id="Path_2787" data-name="Path 2787" d="M789.925,474.1c-.13.148-.118.345-.175.517a3.572,3.572,0,0,1-3.541,2.455q-4.228.008-8.456,0-9.088,0-18.177,0a3.567,3.567,0,0,1-3.439-2.118,3.23,3.23,0,0,1-.313-1.449c0-.932-.007-1.864,0-2.8a3.556,3.556,0,0,1,3.424-3.586c.144-.008.289-.008.432-.008q9.954,0,19.908.007c.309,0,.4-.057.4-.388-.016-2.841-.009-5.682-.008-8.523,0-.111,0-.223.005-.333a.71.71,0,0,1,.7-.7.72.72,0,0,1,.7.669,2.992,2.992,0,0,1,.007.333c0,2.863.006,5.727-.008,8.589,0,.308.091.353.366.351,1.454-.014,2.909.029,4.361-.015a3.628,3.628,0,0,1,3.757,3.025c0,.014.032.025.048.038Zm-17.015-5.553H759.691c-.188,0-.377.008-.565.023a2.087,2.087,0,0,0-1.838,1.778c-.1,1.073-.037,2.15-.033,3.227a1.877,1.877,0,0,0,.077.49,2.127,2.127,0,0,0,2.258,1.575h26.57c.145,0,.289,0,.432-.014a2.092,2.092,0,0,0,1.873-1.819c.1-1.051.035-2.107.032-3.16a1.94,1.94,0,0,0-.215-.9,2.185,2.185,0,0,0-2.124-1.206Q779.536,468.552,772.91,468.545Z" transform="translate(0 -66.147)" fill="#e45415"/>
    <path id="Path_2788" data-name="Path 2788" d="M1121.562,392.7a10.014,10.014,0,0,0-.315,1.4,9.3,9.3,0,0,1-2.341,4.11.711.711,0,0,1-1.011.085.689.689,0,0,1-.05-1.008,11.438,11.438,0,0,0,1.207-1.584,7.812,7.812,0,0,0-.913-9.176c-.1-.115-.214-.227-.306-.35a.7.7,0,0,1,.05-.987.714.714,0,0,1,1.014.068,9.169,9.169,0,0,1,1.257,1.588,9.308,9.308,0,0,1,1.339,3.823c.007.059-.023.138.069.164Z" transform="translate(-331.637 0)" fill="#e45415"/>
    <path id="Path_2789" data-name="Path 2789" d="M943.28,391.556A9.1,9.1,0,0,1,945.9,385.3a.73.73,0,0,1,1.039-.1.694.694,0,0,1,.018,1.035,9.259,9.259,0,0,0-1.623,2.415,7.854,7.854,0,0,0,1.275,8.219,5.781,5.781,0,0,1,.43.507.692.692,0,0,1-.985.955,4.035,4.035,0,0,1-.726-.774A9.319,9.319,0,0,1,943.28,391.556Z" transform="translate(-171.816 -0.014)" fill="#e45415"/>
    <path id="Path_2790" data-name="Path 2790" d="M977.31,413.624a6.22,6.22,0,0,1,1.789-4.236.725.725,0,0,1,1.035-.115.7.7,0,0,1,.013,1.06,5.042,5.042,0,0,0-1.291,2.395,4.9,4.9,0,0,0,1.1,4.37c.086.1.178.2.255.305a.7.7,0,0,1-.068.958.709.709,0,0,1-.989-.042,5.986,5.986,0,0,1-1.136-1.547A6.664,6.664,0,0,1,977.31,413.624Z" transform="translate(-203.007 -22.083)" fill="#e45415"/>
    <path id="Path_2791" data-name="Path 2791" d="M1096.594,413.819a6.33,6.33,0,0,1-1.758,4.392.739.739,0,0,1-1.083.136.715.715,0,0,1,.038-1.089,4.933,4.933,0,0,0,1.379-3.659,4.838,4.838,0,0,0-1.217-3.055c-.088-.1-.18-.2-.259-.3a.7.7,0,0,1,.075-.985.716.716,0,0,1,.99.067,6.085,6.085,0,0,1,1.112,1.524A6.308,6.308,0,0,1,1096.594,413.819Z" transform="translate(-309.52 -22.069)" fill="#e45415"/>
    <path id="Path_2792" data-name="Path 2792" d="M1071.678,435.815a3.58,3.58,0,0,1-.918,2.4.744.744,0,0,1-1.082.165.694.694,0,0,1-.017-1.06,2.2,2.2,0,0,0,.005-2.962.7.7,0,0,1,.008-1.062.742.742,0,0,1,1.083.16A3.5,3.5,0,0,1,1071.678,435.815Z" transform="translate(-287.435 -44.103)" fill="#e45415"/>
    <path id="Path_2793" data-name="Path 2793" d="M1012.845,433.169a.692.692,0,0,1,.623,1.028,2.283,2.283,0,0,1-.233.324,2.1,2.1,0,0,0,.005,2.719c.4.5.418.9.057,1.189s-.776.184-1.168-.288a3.557,3.557,0,0,1,.118-4.659A.792.792,0,0,1,1012.845,433.169Z" transform="translate(-234.177 -44.14)" fill="#e45415"/>
    <path id="Path_2794" data-name="Path 2794" d="M1015.578,627.3c1.131,0,2.263,0,3.394,0,.634,0,1,.43.818.941a.626.626,0,0,1-.52.452,3.086,3.086,0,0,1-.429.035q-3.262,0-6.523,0c-.653,0-1-.247-1-.714s.344-.718,1-.718Z" transform="translate(-234.179 -222.075)" fill="#fea400"/>
    <path id="Path_2795" data-name="Path 2795" d="M808.386,628.1a.7.7,0,0,1-.683.711.716.716,0,0,1-.724-.708.739.739,0,0,1,.7-.7A.717.717,0,0,1,808.386,628.1Z" transform="translate(-46.889 -222.164)" fill="#fea400"/>
    <path id="Path_2796" data-name="Path 2796" d="M859.476,628.089a.7.7,0,0,1-.681.712.715.715,0,0,1-.726-.706.741.741,0,0,1,.7-.705A.719.719,0,0,1,859.476,628.089Z" transform="translate(-93.716 -222.155)" fill="#fea400"/>
    <path id="Path_2797" data-name="Path 2797" d="M910.564,628.129a.7.7,0,0,1-.693.7.72.72,0,0,1-.713-.687.732.732,0,0,1,.716-.724A.713.713,0,0,1,910.564,628.129Z" transform="translate(-140.541 -222.181)" fill="#fea400"/>
    <path id="Path_2798" data-name="Path 2798" d="M961.647,628.085a.7.7,0,0,1-.677.715.715.715,0,0,1-.729-.7.741.741,0,0,1,.7-.708A.72.72,0,0,1,961.647,628.085Z" transform="translate(-187.361 -222.154)" fill="#fea400"/>
  </g>
</svg>
