<svg xmlns="http://www.w3.org/2000/svg" width="26.706" height="25.602" viewBox="0 0 26.706 25.602">
  <g id="telephone" transform="translate(-768 -355.899)">
    <path id="Path_2799" data-name="Path 2799" d="M794.706,360.615v16.172a1.839,1.839,0,0,1-2.068,1.379c-4.777-.021-9.555-.01-14.333-.01h-.32c-.026.1-.045.171-.06.239a3.87,3.87,0,0,1-3.8,3.1c-.782.009-1.564.014-2.345,0a3.857,3.857,0,0,1-3.632-2.845c-.056-.2-.1-.4-.145-.605v-6.991a1.162,1.162,0,0,0,.047-.147,3.9,3.9,0,0,1,3.04-3.225l.252-.056v-.331q0-3.167,0-6.335a1.654,1.654,0,0,1,1.688-1.707c.171,0,.341,0,.544,0,0-.233-.006-.431,0-.629a2.741,2.741,0,0,1,2.693-2.7q1.224-.032,2.45,0a2.728,2.728,0,0,1,2.588,2.3c.05.331.05.669.074,1.03h8.836c.921,0,1.842,0,2.763,0a1.644,1.644,0,0,1,1.682,1.28A.486.486,0,0,0,794.706,360.615Zm-15.582,16.433h13.732c.548,0,.741-.189.741-.731q0-7.614,0-15.229c0-.546-.19-.734-.737-.734H781.354v12.621a2.789,2.789,0,0,1-2.072,2.872c-.063.022-.148.1-.15.161C779.116,376.345,779.124,376.682,779.124,377.048Zm-4.448-11.134q0,3.572,0,7.143a1.658,1.658,0,0,0,1.741,1.759c.695,0,1.39,0,2.085,0a1.981,1.981,0,0,0,.44-.041,1.677,1.677,0,0,0,1.3-1.749q0-3.715,0-7.43,0-3.4,0-6.8a1.675,1.675,0,0,0-1.785-1.776q-.99,0-1.981,0a1.676,1.676,0,0,0-1.8,1.807Q774.675,362.37,774.676,365.914Zm-3.338,2.855c-.058.01-.092.015-.125.022a2.749,2.749,0,0,0-2.1,2.684c-.02,2.042-.026,4.084,0,6.126a2.761,2.761,0,0,0,2.861,2.785c.739,0,1.477.01,2.215,0a2.765,2.765,0,0,0,2.591-1.984c.02-.07.027-.144.044-.242h-.318q-1.682,0-3.363,0a1.67,1.67,0,0,1-1.809-1.822q0-3.623,0-7.247Zm4.447,8.277c0-.339-.008-.65,0-.961.006-.162-.051-.224-.207-.263a2.177,2.177,0,0,1-.529-.212,2.761,2.761,0,0,1-1.486-2.59q.007-6.154,0-12.307v-.328c-.826-.112-1.132.035-1.129.889.017,4.989.008,9.978.008,14.967a1.957,1.957,0,0,0,.017.337.522.522,0,0,0,.518.464C773.9,377.051,774.822,377.046,775.785,377.046Zm2.212-.011v-1.079H776.92v1.079Z" transform="translate(0)" fill="#e45415"/>
    <path id="Path_2800" data-name="Path 2800" d="M980.928,440.355h-4.247c-.561,0-.751-.19-.752-.75q0-1.5,0-3c0-.508.2-.712.711-.712q4.3,0,8.6,0c.519,0,.7.188.7.711q0,1.512,0,3.023c0,.547-.183.726-.742.726Zm3.893-3.322h-7.747v2.187h7.747Z" transform="translate(-193.468 -74.432)" fill="#e45415"/>
    <path id="Path_2801" data-name="Path 2801" d="M985.1,515.952c.165,0,.33,0,.495,0a.548.548,0,0,1,.6.552c.017.372.017.746,0,1.118a.536.536,0,0,1-.545.551c-.372.017-.745.017-1.118,0a.548.548,0,0,1-.559-.59q-.009-.52,0-1.04a.553.553,0,0,1,.584-.591C984.733,515.948,984.915,515.952,985.1,515.952Z" transform="translate(-200.943 -148.92)" fill="#fea400"/>
    <path id="Path_2802" data-name="Path 2802" d="M1031.982,517.043c0-.182-.005-.364,0-.546a.551.551,0,0,1,.579-.57c.355-.008.71-.007,1.066,0a.532.532,0,0,1,.572.519,11.128,11.128,0,0,1,0,1.17.536.536,0,0,1-.562.533c-.364.014-.729.015-1.092,0a.551.551,0,0,1-.564-.586C1031.977,517.389,1031.982,517.216,1031.982,517.043Z" transform="translate(-245.621 -148.893)" fill="#fea400"/>
    <path id="Path_2803" data-name="Path 2803" d="M1081.062,515.948c.173,0,.347,0,.52,0a.548.548,0,0,1,.589.56c.016.364.016.729,0,1.093a.551.551,0,0,1-.581.572c-.355.013-.712.013-1.066,0a.554.554,0,0,1-.576-.6c-.006-.347-.007-.694,0-1.04a.553.553,0,0,1,.592-.583C1080.715,515.944,1080.889,515.948,1081.062,515.948Z" transform="translate(-290.249 -148.916)" fill="#fea400"/>
    <path id="Path_2804" data-name="Path 2804" d="M983.982,565.052c0-.182-.005-.364,0-.546a.55.55,0,0,1,.579-.57c.355-.008.711-.007,1.066,0a.532.532,0,0,1,.572.519,11.162,11.162,0,0,1,0,1.17.536.536,0,0,1-.562.533c-.364.014-.729.015-1.092,0a.551.551,0,0,1-.564-.586C983.977,565.4,983.982,565.226,983.982,565.052Z" transform="translate(-200.959 -193.564)" fill="#fea400"/>
    <path id="Path_2805" data-name="Path 2805" d="M1033.079,563.96c.173,0,.347,0,.52,0a.542.542,0,0,1,.579.542c.018.38.018.764,0,1.144a.537.537,0,0,1-.558.537c-.364.015-.729.015-1.092,0a.554.554,0,0,1-.569-.608c0-.338-.006-.677,0-1.015a.556.556,0,0,1,.6-.6C1032.732,563.956,1032.906,563.96,1033.079,563.96Z" transform="translate(-245.597 -193.589)" fill="#fea400"/>
    <path id="Path_2806" data-name="Path 2806" d="M1079.978,565.014c0-.182-.007-.364,0-.546a.543.543,0,0,1,.546-.547c.373-.011.746-.01,1.118,0a.533.533,0,0,1,.554.54c.018.38.018.764,0,1.144a.537.537,0,0,1-.559.538c-.363.015-.729.015-1.092,0a.556.556,0,0,1-.57-.608c0-.173,0-.347,0-.52Z" transform="translate(-290.278 -193.547)" fill="#fea400"/>
    <path id="Path_2807" data-name="Path 2807" d="M983.978,613.051c0-.173,0-.347,0-.52a.553.553,0,0,1,.592-.583c.347-.006.693-.006,1.04,0a.545.545,0,0,1,.59.558c.016.372.016.746,0,1.118a.536.536,0,0,1-.551.545c-.372.016-.746.017-1.118,0a.548.548,0,0,1-.552-.6C983.974,613.4,983.978,613.224,983.978,613.051Z" transform="translate(-200.956 -238.236)" fill="#fea400"/>
    <path id="Path_2808" data-name="Path 2808" d="M1031.982,613.045c0-.182-.005-.364,0-.546a.546.546,0,0,1,.558-.564c.364-.01.728-.009,1.093,0a.54.54,0,0,1,.571.55c.017.372.017.746,0,1.118a.543.543,0,0,1-.57.554c-.355.014-.711.013-1.066,0a.561.561,0,0,1-.586-.619C1031.979,613.374,1031.981,613.209,1031.982,613.045Z" transform="translate(-245.621 -238.222)" fill="#fea400"/>
    <path id="Path_2809" data-name="Path 2809" d="M1081.054,611.966c.173,0,.347,0,.52,0a.548.548,0,0,1,.595.554c.017.372.017.746,0,1.118a.535.535,0,0,1-.547.549c-.372.017-.746.017-1.119,0a.547.547,0,0,1-.556-.593q-.01-.52,0-1.04a.553.553,0,0,1,.586-.589C1080.707,611.961,1080.881,611.966,1081.054,611.966Z" transform="translate(-290.248 -238.256)" fill="#fea400"/>
  </g>
</svg>
