<svg xmlns="http://www.w3.org/2000/svg" xmlns:xlink="http://www.w3.org/1999/xlink" width="46" height="46" viewBox="0 0 46 46">
  <defs>
    <clipPath id="clip-path">
      <rect id="Rectangle_950" data-name="Rectangle 950" width="27" height="27" transform="translate(-0.162 -0.162)" fill="none"/>
    </clipPath>
  </defs>
  <g id="voting" transform="translate(-19 -296)">
    <g id="Ellipse_430" data-name="Ellipse 430" transform="translate(19 296)" fill="#FFF2EC" stroke="#e45415" stroke-width="1">
      <circle cx="23" cy="23" r="23" stroke="none"/>
      <circle cx="23" cy="23" r="22.5" fill="none"/>
    </g>
    <g id="Group_5724" data-name="Group 5724" transform="translate(0 -1)">
      <g id="voting-2" data-name="voting" transform="translate(-1.838 -146.838)">
        <g id="Group_5457" data-name="Group 5457" transform="translate(31 453)">
          <g id="Group_5456" data-name="Group 5456" transform="translate(0 0)" clip-path="url(#clip-path)">
            <path id="Path_4404" data-name="Path 4404" d="M0,25.882A.738.738,0,0,1,.754,25.5c.474.021.95.005,1.468.005V14.173c0-.087,0-.173,0-.26a.552.552,0,0,1,.616-.607c.909,0,1.818,0,2.727,0h.3c-.053-.356-.12-.692-.151-1.032A6.843,6.843,0,0,1,10.9,4.935q2.477-.621,4.951-1.255c.066-.017.129-.043.207-.07a1.489,1.489,0,0,1,0-1.409A7.171,7.171,0,0,1,18.1.159,1.88,1.88,0,0,1,18.5,0h.572a2.772,2.772,0,0,1,1.245.84q2.725,2.744,5.47,5.469a2.728,2.728,0,0,1,.821,1.227v.572a4.718,4.718,0,0,1-.484.869c-.4.457-.845.868-1.277,1.293a1.637,1.637,0,0,1-.941.454,1.8,1.8,0,0,1-1.212-.3c-.058.086-.107.156-.154.228-.825,1.27-1.668,2.529-2.468,3.814A11.731,11.731,0,0,1,17.948,17.1a.546.546,0,0,0-.189.453q.009,3.819,0,7.638v.311h.306c.45,0,.9-.007,1.351.006a.541.541,0,0,1,.529.63.647.647,0,0,1-.408.468H.416L0,26.194v-.312M9.83,13.3c.09-.151.164-.3.257-.43a3.431,3.431,0,0,1,5.683.08.6.6,0,0,1-.077.935Q14.64,14.941,13.584,16c-.685.686-1.379,1.365-2.052,2.062A1.378,1.378,0,0,0,12,20.4a1.4,1.4,0,0,0,1.524-.377q2.214-2.249,4.428-4.5a3.3,3.3,0,0,0,.423-.488q1.69-2.586,3.365-5.181c.05-.077.1-.157.14-.231-.03-.037-.044-.059-.062-.077q-2.4-2.43-4.8-4.862a.306.306,0,0,0-.346-.075c-1.817.464-3.638.916-5.454,1.385a5.727,5.727,0,0,0-4.432,5.472A5.05,5.05,0,0,0,7.047,13.3ZM3.341,25.469H16.629V18.508l-.056-.042c-.064.078-.122.162-.193.234-.742.753-1.466,1.523-2.233,2.25a2.486,2.486,0,0,1-3.627-.256,2.542,2.542,0,0,1,.251-3.442c.856-.871,1.722-1.732,2.589-2.593a.933.933,0,0,1,.255-.129l-.092-.106H3.341ZM23.657,9.679a2.5,2.5,0,0,0,.478-.275c.368-.341.716-.7,1.07-1.059.394-.4.393-.655,0-1.053L19.306,1.4c-.049-.049-.1-.1-.15-.144a.534.534,0,0,0-.752.012q-.626.6-1.23,1.23a.535.535,0,0,0,0,.772c.115.129.244.245.366.368q2.856,2.89,5.715,5.777a2.427,2.427,0,0,0,.4.265m-9.042,3.613a2.239,2.239,0,0,0-3.393,0Z" transform="translate(0.033 0.033)" fill="#e45415"/>
            <path id="Path_4405" data-name="Path 4405" d="M0,378l.416.416H0V378" transform="translate(0.033 -351.773)" fill="#fff"/>
          </g>
        </g>
        <g id="Rectangle_951" data-name="Rectangle 951" transform="translate(35.838 468.838)" fill="none" stroke="#fea400" stroke-width="1">
          <rect width="4" height="4" stroke="none"/>
          <rect x="0.5" y="0.5" width="3" height="3" fill="none"/>
        </g>
      </g>
      <rect id="Rectangle_986" data-name="Rectangle 986" width="2" height="1.11" rx="0.555" transform="translate(29 331.7)" fill="#e45415"/>
    </g>
  </g>
</svg>
