<svg xmlns="http://www.w3.org/2000/svg" width="22.524" height="22.994" viewBox="0 0 22.524 22.994">
  <g id="bank" transform="translate(-815.311 -388.551)">
    <path id="Path_2779" data-name="Path 2779" d="M826.578,397.227q-5.092,0-10.183-.005a1.42,1.42,0,0,1-.645-.128.859.859,0,0,1,.019-1.508q2-1.34,4-2.669l6.161-4.108a.935.935,0,0,1,1.28,0q5.035,3.354,10.063,6.718a1.411,1.411,0,0,1,.508.6.818.818,0,0,1-.62,1.069,2.241,2.241,0,0,1-.463.037Q831.64,397.228,826.578,397.227Zm9.1-1.271c-.091-.069-.121-.094-.154-.116q-4.379-2.921-8.756-5.844a.308.308,0,0,0-.408.021q-4.279,2.859-8.564,5.711c-.093.061-.181.129-.32.228Z" transform="translate(0 0)" fill="#e45415"/>
    <path id="Path_2780" data-name="Path 2780" d="M834.546,639.708c-2.89,0-5.779.006-8.669,0a1.866,1.866,0,1,1,.016-3.732q2.729-.006,5.458,0,5.94,0,11.879,0a1.867,1.867,0,1,1,.042,3.732c-1.917.007-3.833,0-5.749,0Zm.014-1.241h8.431c.1,0,.194,0,.292,0a.625.625,0,1,0-.012-1.249c-.068,0-.136,0-.2,0H826.088c-.553,0-.845.213-.851.619s.294.636.863.636Z" transform="translate(-8.001 -228.165)" fill="#e45415"/>
    <path id="Path_2781" data-name="Path 2781" d="M855.956,520.045v-3.18a2.243,2.243,0,0,1,.009-.291.619.619,0,0,1,1.233-.016,1.726,1.726,0,0,1,.012.261q0,3.224,0,6.448a1.62,1.62,0,0,1-.024.319.613.613,0,0,1-1.209-.012,1.731,1.731,0,0,1-.02-.319Q855.955,521.649,855.956,520.045Z" transform="translate(-37.481 -117.53)" fill="#fea400"/>
    <path id="Path_2782" data-name="Path 2782" d="M1047.989,520c0-1.1,0-2.2,0-3.3,0-.476.311-.788.71-.722a.577.577,0,0,1,.515.485,2.315,2.315,0,0,1,.027.435q0,3.122,0,6.244c0,.1,0,.2,0,.292a.624.624,0,1,1-1.248.006c-.008-.087,0-.175,0-.262Q1047.99,521.587,1047.989,520Z" transform="translate(-214.569 -117.502)" fill="#fea400"/>
    <path id="Path_2783" data-name="Path 2783" d="M984.032,519.995c0-1.128,0-2.256,0-3.384a.62.62,0,0,1,.925-.587.664.664,0,0,1,.314.644c0,1.186,0,2.373,0,3.559,0,1.031,0,2.062,0,3.093a.645.645,0,0,1-.327.635.615.615,0,0,1-.912-.577c-.01-.865,0-1.731,0-2.6Q984.031,520.39,984.032,519.995Z" transform="translate(-155.588 -117.473)" fill="#fea400"/>
    <path id="Path_2784" data-name="Path 2784" d="M920.088,520c0-1.128-.005-2.256,0-3.384a.614.614,0,0,1,.9-.6.607.607,0,0,1,.34.57q0,3.4,0,6.8a.619.619,0,1,1-1.235,0C920.084,522.254,920.088,521.126,920.088,520Z" transform="translate(-96.621 -117.477)" fill="#fea400"/>
  </g>
</svg>
