<svg xmlns="http://www.w3.org/2000/svg" width="18.212" height="18.211" viewBox="0 0 18.212 18.211">
  <g id="filter" transform="translate(-767.68 -347.7)">
    <path id="Path_3703" data-name="Path 3703" d="M785.611,350.683a.654.654,0,0,1-.7.424c-.934-.015-1.868,0-2.8-.007-.119,0-.178.023-.214.151a2.553,2.553,0,0,1-4.918,0c-.039-.137-.106-.156-.229-.156-2.686,0-5.374,0-8.06.007a.649.649,0,0,1-.686-.423v-.275a.7.7,0,0,1,.732-.411c2.656.008,5.313,0,7.97,0h.221c.018-.056.034-.1.046-.142a2.431,2.431,0,0,1,1.2-1.522,6.516,6.516,0,0,1,.907-.338h.688a.48.48,0,0,0,.08.028,2.527,2.527,0,0,1,1.935,1.507c.069.148.113.308.17.467h.2c.911,0,1.823.01,2.733,0a.7.7,0,0,1,.733.411Zm-6.173-1.587a1.461,1.461,0,1,0,0,2.922,1.461,1.461,0,0,0,0-2.922Z" transform="translate(-0.019 0)" fill="#E45415" stroke="#E45415" stroke-width="0.6"/>
    <path id="Path_3704" data-name="Path 3704" d="M767.981,622.826a.643.643,0,0,1,.685-.423c2.681.008,5.362,0,8.043.008.151,0,.212-.037.255-.189a2.555,2.555,0,0,1,4.906.02c.036.129.084.17.217.169.934-.006,1.868.007,2.8-.009a.655.655,0,0,1,.7.424v.275a.7.7,0,0,1-.733.411c-.917-.014-1.834,0-2.751,0h-.184c-.018.053-.032.09-.043.128a2.484,2.484,0,0,1-1.357,1.62,5.827,5.827,0,0,1-.779.252h-.688a.661.661,0,0,0-.094-.033,2.549,2.549,0,0,1-1.3-.654,2.6,2.6,0,0,1-.755-1.314h-.226c-2.656,0-5.313,0-7.969,0a.7.7,0,0,1-.733-.411C767.981,623.009,767.981,622.917,767.981,622.826Zm11.441,1.587a1.461,1.461,0,1,0-1.467-1.455A1.462,1.462,0,0,0,779.422,624.413Z" transform="translate(0 -259.898)" fill="#E45415" stroke="#E45415" stroke-width="0.6"/>
    <path id="Path_3705" data-name="Path 3705" d="M767.991,486.593a.667.667,0,0,1,.709-.418c.922.014,1.845,0,2.768,0h.2a2.578,2.578,0,0,1,1.072-1.57,2.524,2.524,0,0,1,1.457-.44,2.59,2.59,0,0,1,2.49,2.01h.2c2.67,0,5.341,0,8.011,0a.676.676,0,0,1,.709.417v.275a.675.675,0,0,1-.709.417c-2.67-.009-5.34,0-8.01,0h-.2a2.578,2.578,0,0,1-5.03,0h-1.32c-.544,0-1.089-.013-1.633,0a.664.664,0,0,1-.71-.417C767.991,486.776,767.991,486.685,767.991,486.593Zm6.18,1.6a1.46,1.46,0,1,0-1.465-1.462A1.459,1.459,0,0,0,774.171,488.19Z" transform="translate(-0.01 -129.925)" fill="#E45415" stroke="#E45415" stroke-width="0.6"/>
  </g>
</svg>
