<svg xmlns="http://www.w3.org/2000/svg" xmlns:xlink="http://www.w3.org/1999/xlink" width="103" height="96" viewBox="0 0 103 96">
  <defs>
    <clipPath id="clip-path">
      <circle id="Ellipse_3" data-name="Ellipse 3" cx="47" cy="47" r="47" fill="#e4e4e4"/>
    </clipPath>
  </defs>
  <g id="Group_914" data-name="Group 914" transform="translate(-140 -316)">
    <g id="Group_453" data-name="Group 453" transform="translate(98 -97)">
      <g id="Path_821" data-name="Path 821" transform="translate(43 414)" fill="#f7f8fa">
        <path d="M 47 94.5 C 40.58776092529297 94.5 34.36706161499023 93.24403381347656 28.51070022583008 90.76701354980469 C 22.8543758392334 88.37458801269531 17.77458763122559 84.94972229003906 13.41242504119873 80.58757781982422 C 9.050274848937988 76.22541046142578 5.625412464141846 71.14562225341797 3.232987403869629 65.48930358886719 C 0.7559624910354614 59.63293838500977 -0.5 53.41223907470703 -0.5 47 C -0.5 40.58776092529297 0.7559624910354614 34.36706161499023 3.232987403869629 28.51070022583008 C 5.625412464141846 22.8543758392334 9.050274848937988 17.77458763122559 13.41242504119873 13.41242504119873 C 17.77458763122559 9.050274848937988 22.8543758392334 5.625412464141846 28.51070022583008 3.232987403869629 C 34.36706161499023 0.7559624910354614 40.58776092529297 -0.5 47 -0.5 C 53.41223907470703 -0.5 59.63293838500977 0.7559624910354614 65.48930358886719 3.232987403869629 C 71.14562225341797 5.625412464141846 76.22541046142578 9.050274848937988 80.58757781982422 13.41242504119873 C 84.94972229003906 17.77458763122559 88.37458801269531 22.8543758392334 90.76701354980469 28.51070022583008 C 93.24403381347656 34.36706161499023 94.5 40.58776092529297 94.5 47 C 94.5 53.41223907470703 93.24403381347656 59.63293838500977 90.76701354980469 65.48930358886719 C 88.37458801269531 71.14562225341797 84.94972229003906 76.22541046142578 80.58757781982422 80.58757781982422 C 76.22541046142578 84.94972229003906 71.14562225341797 88.37458801269531 65.48930358886719 90.76701354980469 C 59.63293838500977 93.24403381347656 53.41223907470703 94.5 47 94.5 Z" stroke="none"/>
        <path d="M 47 0 C 21.04261016845703 0 0 21.04261016845703 0 47 C 0 72.95738983154297 21.04261016845703 94 47 94 C 72.95738983154297 94 94 72.95738983154297 94 47 C 94 21.04261016845703 72.95738983154297 0 47 0 M 47 -1 C 53.47952651977539 -1 59.76575088500977 0.2692489624023438 65.68407440185547 2.772483825683594 C 71.40000152587891 5.19012451171875 76.53321075439453 8.650962829589844 80.94112396240234 13.05887603759766 C 85.34903717041016 17.46678924560547 88.80987548828125 22.59999847412109 91.22751617431641 28.31592559814453 C 93.73075103759766 34.23424911499023 95 40.52047348022461 95 47 C 95 53.47952651977539 93.73075103759766 59.76575088500977 91.22751617431641 65.68407440185547 C 88.80987548828125 71.40000152587891 85.34903717041016 76.53321075439453 80.94112396240234 80.94112396240234 C 76.53321075439453 85.34903717041016 71.40000152587891 88.80987548828125 65.68407440185547 91.22751617431641 C 59.76575088500977 93.73075103759766 53.47952651977539 95 47 95 C 40.52047348022461 95 34.23424911499023 93.73075103759766 28.31592559814453 91.22751617431641 C 22.59999847412109 88.80987548828125 17.46678924560547 85.34903717041016 13.05887603759766 80.94112396240234 C 8.650962829589844 76.53321075439453 5.19012451171875 71.40000152587891 2.772483825683594 65.68407440185547 C 0.2692489624023438 59.76575088500977 -1 53.47952651977539 -1 47 C -1 40.52047348022461 0.2692489624023438 34.23424911499023 2.772483825683594 28.31592559814453 C 5.19012451171875 22.59999847412109 8.650962829589844 17.46678924560547 13.05887603759766 13.05887603759766 C 17.46678924560547 8.650962829589844 22.59999847412109 5.19012451171875 28.31592559814453 2.772483825683594 C 34.23424911499023 0.2692489624023438 40.52047348022461 -1 47 -1 Z" stroke="none" fill="#e45415"/>
      </g>
      <g id="Group_1" data-name="Group 1" transform="translate(43 414)" clip-path="url(#clip-path)">
        <g id="Boy" transform="translate(10.699 11.528)" style="mix-blend-mode: normal;isolation: isolate">
          <path id="Path_231" data-name="Path 231" d="M74.965,75.176,59.118,71.528h-17.2L26.076,75.176A15.284,15.284,0,0,0,14.22,90.071v13.937h72.6V90.071A15.284,15.284,0,0,0,74.965,75.176Z" transform="translate(-14.22 -10.008)" fill="#e45415"/>
          <g id="Group_451" data-name="Group 451" transform="translate(12.228 86.358)">
            <rect id="Rectangle_225" data-name="Rectangle 225" width="3.821" height="7.642" fill="#46bee8"/>
          </g>
          <g id="Group_452" data-name="Group 452" transform="translate(56.553 86.358)">
            <rect id="Rectangle_226" data-name="Rectangle 226" width="3.821" height="7.642" fill="#46bee8"/>
          </g>
          <path id="Path_232" data-name="Path 232" d="M53.525,84.329A12.815,12.815,0,0,0,66.287,72.487l-4.164-.958h-17.2l-4.164.958A12.815,12.815,0,0,0,53.525,84.329Z" transform="translate(-17.225 -10.008)" fill="#f8e401"/>
          <path id="Path_233" data-name="Path 233" d="M62.654,70.382V61.4h-17.2v8.98a8.6,8.6,0,0,0,8.6,8.6h0A8.6,8.6,0,0,0,62.654,70.382Z" transform="translate(-17.756 -8.862)" fill="#fae0d6"/>
          <path id="Path_234" data-name="Path 234" d="M54.057,67.276a21.87,21.87,0,0,0,8.6-1.757V61.187h-17.2v4.332A21.87,21.87,0,0,0,54.057,67.276Z" transform="translate(-17.756 -8.837)" fill="#f2cfc1"/>
          <path id="Path_235" data-name="Path 235" d="M77.484,31.455H75.191V41.39h2.293a2.675,2.675,0,0,0,2.675-2.675V34.13A2.675,2.675,0,0,0,77.484,31.455Z" transform="translate(-21.122 -5.472)" fill="#fae0d6"/>
          <path id="Path_236" data-name="Path 236" d="M32.191,31.455h2.293V41.39H32.191a2.675,2.675,0,0,1-2.675-2.675V34.13A2.675,2.675,0,0,1,32.191,31.455Z" transform="translate(-15.951 -5.472)" fill="#fae0d6"/>
          <path id="Path_237" data-name="Path 237" d="M35.139,22.69V41.623a17.75,17.75,0,0,0,17.75,17.75h0a17.75,17.75,0,0,0,17.75-17.75V22.69h-35.5Z" transform="translate(-16.588 -4.479)" fill="#ffd3b3"/>
          <path id="Path_238" data-name="Path 238" d="M35.118,22.647V41.6A17.768,17.768,0,0,0,52.886,59.368h0A17.768,17.768,0,0,0,70.654,41.6V22.647Z" transform="translate(-16.585 -4.474)" fill="#fae0d6"/>
          <path id="Path_239" data-name="Path 239" d="M52.593,2.154h0A20.12,20.12,0,0,1,72.654,22.215v5.923H70.362v9.935L67.5,27.947c-10.869-.312-20.028-2-24.646-7.451,0,0-1.665,5.225-5.35,7.451L34.825,38.073V28.138H32.533V22.215A20.12,20.12,0,0,1,52.593,2.154Z" transform="translate(-16.293 -2.154)" fill="#96a5b8"/>
        </g>
      </g>
    </g>
    <g id="Positive_Parenting" data-name="Positive Parenting" transform="translate(112.7 276.302)">
      <circle id="Ellipse_98" data-name="Ellipse 98" cx="15" cy="15" r="15" transform="translate(100.3 104.698)" fill="#d91111"/>
      <g id="Group_912" data-name="Group 912" transform="translate(106.066 112.778)">
        <path id="Path_818" data-name="Path 818" d="M200.568,386.94l-7.533-7.174L195.667,377l4.8,4.567,8.371-8.624,2.738,2.658Z" transform="translate(-193.035 -372.946)" fill="none"/>
      </g>
      <path id="Fill_3" data-name="Fill 3" d="M5.292,3.642l3.3-3.3a1.167,1.167,0,0,1,1.651,1.651l-3.3,3.3,3.3,3.3a1.167,1.167,0,1,1-1.651,1.649l-3.3-3.3-3.3,3.3A1.167,1.167,0,1,1,.342,8.592l3.3-3.3-3.3-3.3A1.167,1.167,0,0,1,1.992.341Z" transform="translate(110.422 114.822)" fill="#fff"/>
    </g>
  </g>
</svg>
