<svg xmlns="http://www.w3.org/2000/svg" width="20.545" height="17.862" viewBox="0 0 20.545 17.862">
  <g id="Group_2893" data-name="Group 2893" transform="translate(-43.351 -214.868)">
    <g id="Group_2457" data-name="Group 2457" transform="translate(44.001 215.518)">
      <g id="Group_2453" data-name="Group 2453" transform="translate(0 0)">
        <g id="Group_2452" data-name="Group 2452">
          <path id="Path_2353" data-name="Path 2353" d="M-1350.592,3499.384h-4.774a1.6,1.6,0,0,1-1.6-1.6v-.625a1.6,1.6,0,0,1,1.6-1.6h4.774Z" transform="translate(1369.838 -3486.746)" fill="none" stroke="#fea400" stroke-linecap="round" stroke-linejoin="round" stroke-width="1.3"/>
          <path id="Path_2354" data-name="Path 2354" d="M-1361.795,3481.583v-.364a2.138,2.138,0,0,0-2.138-2.138h-14.514a2.592,2.592,0,0,0-2.593,2.593h0a2.592,2.592,0,0,0,2.593,2.593h14.514a2.138,2.138,0,0,1,2.138,2.138v7.634a1.6,1.6,0,0,1-1.6,1.6h-14.434a3.21,3.21,0,0,1-3.207-3.208V3481.8a2.71,2.71,0,0,1,2.71-2.71h10.435" transform="translate(1381.04 -3479.08)" fill="none" stroke="#e45415" stroke-linecap="round" stroke-linejoin="round" stroke-width="1.3"/>
        </g>
      </g>
    </g>
  </g>
</svg>
