<svg xmlns="http://www.w3.org/2000/svg" width="37.043" height="37.043" viewBox="0 0 37.043 37.043">
  <g id="Group_5705" data-name="Group 5705" transform="translate(0 0)">
    <g id="Group_5706" data-name="Group 5706" transform="translate(0 0)">
      <path id="Path_4902" data-name="Path 4902" d="M45.91,27.955A17.955,17.955,0,1,1,27.955,10,17.955,17.955,0,0,1,45.91,27.955" transform="translate(-9.434 -9.434)" fill="#ffc20e"/>
      <path id="Path_4903" data-name="Path 4903" d="M18.522,37.043A18.522,18.522,0,0,1,5.425,5.425,18.522,18.522,0,0,1,31.618,31.618a18.4,18.4,0,0,1-13.1,5.425m0-35.91A17.389,17.389,0,1,0,35.91,18.522,17.408,17.408,0,0,0,18.522,1.133" transform="translate(0 0)" fill="#fcaf17"/>
      <path id="Path_4904" data-name="Path 4904" d="M318.5,49.6a1.128,1.128,0,0,1-.752-.286,13.781,13.781,0,0,0-9.166-3.483,1.133,1.133,0,0,1,0-2.266,16.044,16.044,0,0,1,10.671,4.055A1.133,1.133,0,0,1,318.5,49.6" transform="translate(-290.033 -41.1)" fill="#ffd400"/>
      <path id="Path_4905" data-name="Path 4905" d="M53.557,323.05a1.129,1.129,0,0,1-.477-.106,16.069,16.069,0,0,1-9.3-14.576,1.133,1.133,0,0,1,2.266,0,13.857,13.857,0,0,0,7.989,12.522,1.133,1.133,0,0,1-.478,2.16" transform="translate(-41.3 -289.833)" fill="#ffd400"/>
      <path id="Path_4906" data-name="Path 4906" d="M165.324,234.662A2.662,2.662,0,1,1,162.662,232a2.662,2.662,0,0,1,2.662,2.662" transform="translate(-150.937 -218.859)" fill="#231f20"/>
      <path id="Path_4907" data-name="Path 4907" d="M203.926,244.963a.963.963,0,1,1-.963-.963.963.963,0,0,1,.963.963" transform="translate(-190.559 -230.18)" fill="#939598"/>
      <path id="Path_4908" data-name="Path 4908" d="M173.473,272.736a.736.736,0,1,1-.736-.736.736.736,0,0,1,.736.736" transform="translate(-162.258 -256.594)" fill="#939598"/>
      <path id="Path_4909" data-name="Path 4909" d="M210,292.4a.4.4,0,1,1,.4.4.4.4,0,0,1-.4-.4" transform="translate(-198.105 -275.461)" fill="#939598"/>
      <path id="Path_4910" data-name="Path 4910" d="M405.324,234.662A2.662,2.662,0,1,1,402.662,232a2.662,2.662,0,0,1,2.662,2.662" transform="translate(-377.344 -218.859)" fill="#231f20"/>
      <path id="Path_4911" data-name="Path 4911" d="M443.926,244.963a.963.963,0,1,1-.963-.963.963.963,0,0,1,.963.963" transform="translate(-416.965 -230.18)" fill="#939598"/>
      <path id="Path_4912" data-name="Path 4912" d="M413.473,272.736a.736.736,0,1,1-.736-.736.736.736,0,0,1,.736.736" transform="translate(-388.664 -256.594)" fill="#939598"/>
      <path id="Path_4913" data-name="Path 4913" d="M452,292.4a.4.4,0,1,1,.4.4.4.4,0,0,1-.4-.4" transform="translate(-426.398 -275.461)" fill="#939598"/>
      <path id="Path_4914" data-name="Path 4914" d="M215.883,382a7.126,7.126,0,1,1-14.253,0Z" transform="translate(-190.209 -360.363)" fill="#a70e13"/>
      <path id="Path_4915" data-name="Path 4915" d="M252.28,413.763a7.126,7.126,0,0,1-10.989,1.525,7.127,7.127,0,0,1,10.989-1.525" transform="translate(-227.624 -388.503)" fill="#ed1d24"/>
    </g>
  </g>
</svg>
