<svg xmlns="http://www.w3.org/2000/svg" width="32.42" height="32.42" viewBox="0 0 32.42 32.42">
  <g id="Group_2899" data-name="Group 2899" transform="translate(-32 -202)">
    <g id="Group_4390" data-name="Group 4390">
      <g id="Group_4388" data-name="Group 4388">
        <circle id="Ellipse_422" data-name="Ellipse 422" cx="16.21" cy="16.21" r="16.21" transform="translate(32 202)" fill="none"/>
      </g>
      <g id="bank" transform="translate(-776.406 -179.937)">
        <path id="Path_2779" data-name="Path 2779" d="M824.343,395.506q-4.082,0-8.163,0a1.138,1.138,0,0,1-.517-.1.688.688,0,0,1,.016-1.209q1.6-1.074,3.208-2.14l4.939-3.293a.749.749,0,0,1,1.026,0q4.036,2.688,8.067,5.385a1.132,1.132,0,0,1,.407.482.656.656,0,0,1-.5.857,1.8,1.8,0,0,1-.371.029Q828.4,395.507,824.343,395.506Zm7.293-1.019c-.073-.056-.1-.076-.123-.093q-3.51-2.341-7.019-4.685a.247.247,0,0,0-.327.017q-3.43,2.292-6.865,4.578c-.074.049-.145.1-.256.183Z" transform="translate(0)" fill="#e45415" stroke="#e45415" stroke-width="0.3"/>
        <path id="Path_2780" data-name="Path 2780" d="M832.451,638.967c-2.316,0-4.633.005-6.949,0a1.5,1.5,0,1,1,.013-2.991q2.188,0,4.375,0,4.761,0,9.522,0a1.5,1.5,0,1,1,.034,2.992c-1.536.006-3.073,0-4.609,0Zm.011-.994h6.759c.078,0,.156,0,.234,0a.5.5,0,1,0-.01-1c-.054,0-.109,0-.163,0h-13.61c-.444,0-.678.171-.682.5s.236.51.692.51Z" transform="translate(-8.135 -231.985)" fill="#e45415"/>
        <path id="Path_2781" data-name="Path 2781" d="M855.956,519.242v-2.549a1.8,1.8,0,0,1,.008-.233.5.5,0,0,1,.989-.013,1.386,1.386,0,0,1,.009.21q0,2.585,0,5.169a1.3,1.3,0,0,1-.019.256.492.492,0,0,1-.97-.009,1.4,1.4,0,0,1-.016-.256Q855.955,520.528,855.956,519.242Z" transform="translate(-38.109 -119.498)" fill="#fea400" stroke="#fea400" stroke-width="0.2"/>
        <path id="Path_2782" data-name="Path 2782" d="M1047.989,519.2c0-.881,0-1.762,0-2.643,0-.382.249-.631.569-.579a.463.463,0,0,1,.413.389,1.864,1.864,0,0,1,.022.349q0,2.5,0,5.005c0,.078,0,.157,0,.234a.5.5,0,1,1-1,0c-.006-.07,0-.14,0-.21Q1047.989,520.473,1047.989,519.2Z" transform="translate(-218.161 -119.469)" fill="#fea400" stroke="#fea400" stroke-width="0.2"/>
        <path id="Path_2783" data-name="Path 2783" d="M984.032,519.19c0-.9,0-1.808,0-2.713a.5.5,0,0,1,.742-.47.533.533,0,0,1,.252.517c0,.951,0,1.9,0,2.853,0,.827,0,1.653,0,2.479a.517.517,0,0,1-.262.509.493.493,0,0,1-.731-.462c-.008-.694,0-1.388,0-2.081Q984.031,519.507,984.032,519.19Z" transform="translate(-158.193 -119.44)" fill="#fea400" stroke="#fea400" stroke-width="0.2"/>
        <path id="Path_2784" data-name="Path 2784" d="M920.088,519.194c0-.9,0-1.808,0-2.712a.492.492,0,0,1,.718-.479.487.487,0,0,1,.273.457q0,2.724,0,5.449a.5.5,0,1,1-.99,0C920.085,521,920.088,520.1,920.088,519.194Z" transform="translate(-98.239 -119.444)" fill="#fea400" stroke="#fea400" stroke-width="0.2"/>
      </g>
    </g>
  </g>
</svg>
