<svg xmlns="http://www.w3.org/2000/svg" width="32.42" height="32.42" viewBox="0 0 32.42 32.42">
  <g id="support" transform="translate(-32 -202)">
    <g id="Group_4390" data-name="Group 4390">
      <g id="Group_4414" data-name="Group 4414">
        <g id="Group_4388" data-name="Group 4388">
          <circle id="Ellipse_422" data-name="Ellipse 422" cx="16.21" cy="16.21" r="16.21" transform="translate(32 202)" fill="none"/>
        </g>
        <g id="support-2" data-name="support" transform="translate(-776.229 -173.163)">
          <path id="Path_2930" data-name="Path 2930" d="M825.025,382a11.212,11.212,0,0,1,1.2.221,6.445,6.445,0,0,1,4.829,5.272,14.064,14.064,0,0,1,.114,1.985c0,.084,0,.168,0,.247a2.147,2.147,0,0,1,1.85,2.274c.006.9,0,1.806,0,2.708a1.557,1.557,0,0,1-1.474,1.7.3.3,0,0,0-.243.156,4.809,4.809,0,0,1-1.725,1.73,4.646,4.646,0,0,1-2.159.612c-.037,0-.073,0-.11.007a.131.131,0,0,0-.033.014,2.307,2.307,0,0,1-2.482,1.8,2.333,2.333,0,0,1-2.072-2.277,2.3,2.3,0,0,1,4.546-.476,3.536,3.536,0,0,0,2.978-1.5c-.155,0-.289,0-.424,0a.45.45,0,0,1-.512-.517q0-2.782,0-5.563a1.144,1.144,0,0,1,.043-.324.406.406,0,0,1,.435-.314c.139,0,.278,0,.406,0,.018-.027.03-.036.031-.046a6.439,6.439,0,0,0-.928-4.22,5.5,5.5,0,0,0-5.105-2.534,5.609,5.609,0,0,0-5.262,4.905c-.081.613-.054,1.241-.078,1.894h.442a.45.45,0,0,1,.493.429,1.83,1.83,0,0,1,.01.256q0,2.754,0,5.508c0,.371-.15.525-.519.525-.574,0-1.148.015-1.72-.011a1.775,1.775,0,0,1-1.689-1.706c-.024-1.067-.02-2.135,0-3.2a1.843,1.843,0,0,1,1.88-1.8c.054,0,.109,0,.195,0,0-.089,0-.165,0-.242a10.61,10.61,0,0,1,.116-2.133,6.531,6.531,0,0,1,4.014-4.89,5.952,5.952,0,0,1,1.893-.456.548.548,0,0,0,.1-.029Zm-6.158,8.674h-1.06a.948.948,0,0,0-1.019,1.011c-.005.987,0,1.974,0,2.962a.829.829,0,0,0,.7.861,12.472,12.472,0,0,0,1.382.011Zm11.376,4.864c.378,0,.738.018,1.1,0a.712.712,0,0,0,.751-.815q0-1.381,0-2.761a1.4,1.4,0,0,0-.3-.919.9.9,0,0,0-.472-.338,7.359,7.359,0,0,0-1.075-.015C830.244,392.305,830.244,393.912,830.244,395.539Zm-3.859,2.937a1.366,1.366,0,1,0-2.732-.049,1.42,1.42,0,0,0,1.395,1.387A1.343,1.343,0,0,0,826.385,398.476Z" transform="translate(0)" fill="#e45415" stroke="#e45415" stroke-width="0.3"/>
        </g>
        <g id="Ellipse_449" data-name="Ellipse 449" transform="translate(46.3 222.78)" fill="none" stroke="#fea400" stroke-width="1.3">
          <circle cx="2.5" cy="2.5" r="2.5" stroke="none"/>
          <circle cx="2.5" cy="2.5" r="1.85" fill="none"/>
        </g>
      </g>
    </g>
  </g>
</svg>
