<svg xmlns="http://www.w3.org/2000/svg" width="268.997" height="175.701" viewBox="0 0 268.997 175.701">
  <g id="Ice_cream-01" data-name="Ice cream-01" transform="translate(0 -117.578)">
    <path id="Path" d="M63.2,7.079C44.771,20.856,50.634,32.531,42.087,42.924,36.111,50.187,10.286,49.6,2.039,67.55s9.293,32.623,38.741,37.733,49.859,8.893,65.434,21.222,55.481,13.235,81.142-8.123,66.741-3.068,79.834-31.877c9.712-21.389-22.77-30.483-25.389-46.728S216.133-3.062,182.636,8.337,91.336-13.966,63.2,7.079Z" transform="translate(0 158.055)" fill="rgba(255,182,48,0.16)"/>
    <path id="Path-2" data-name="Path" d="M116.687,90.59c-1.512-2.727-1.512-5.413,1.073-9.275h0a48.123,48.123,0,0,0,7.621-26.471C125.38,24.555,100.141,0,69.007,0S12.631,24.542,12.631,54.844A49.561,49.561,0,0,0,15.6,71.989h0c1.737,4.7,2.438,12.547-1.4,16.388C10.21,92.369,3.3,93.006.846,97.55c-2.762,5.092,1.134,12.138,13.233,10.536,4.216-.559,15.473-6.558,19.835-.494,3.3,4.581,15.085,14.763,30.371,8.457,17.983-7.41,25.44-7.332,34.58-4.874,15.923,4.278,28.44-1.749,29.543-7.424C130.069,95.178,118.2,93.327,116.687,90.59Z" transform="translate(67.849 117.578)" fill="#ffb630"/>
    <ellipse id="Oval" cx="12.931" cy="7.68" rx="12.931" ry="7.68" transform="matrix(0.762, -0.647, 0.647, 0.762, 89.537, 151.241)" fill="#fff" opacity="0.79" style="mix-blend-mode: soft-light;isolation: isolate"/>
    <ellipse id="Oval-2" data-name="Oval" cx="5.83" cy="5.835" rx="5.83" ry="5.835" transform="translate(108.172 170.411)" fill="#a35419"/>
    <path id="Path-3" data-name="Path" d="M.561.211a5.192,5.192,0,0,1,.582,3.634C.615,5.6-1.053,8.276.99,10.618A3.65,3.65,0,0,0,7.232,9.2C7.848,6.684,4.759,2.989,6.356.937,5.3-.593.561.211.561.211Z" transform="translate(155.419 180.422)" fill="#fff" opacity="0.79"/>
    <ellipse id="Oval-3" data-name="Oval" cx="5.83" cy="5.835" rx="5.83" ry="5.835" transform="translate(153.287 170.411)" fill="#a35419"/>
    <path id="Path-4" data-name="Path" d="M0,4.308S1.454,0,7.038,0,13.9,4.308,13.9,4.308" transform="translate(129.607 184.123)" fill="none" stroke="#a35419" stroke-linecap="round" stroke-miterlimit="10" stroke-width="5.668"/>
    <path id="Path-5" data-name="Path" d="M13.458.055C8.486-.4,1.07,1.974.082,5.761s7.09,5.972,14.3,5.355c7.675-.654,10.352-3.749,9.875-5.4S20.367.679,13.458.055Z" transform="translate(61.374 234.372)" fill="#ffbe48"/>
    <path id="Path-6" data-name="Path" d="M4.69.131C-.38.667-1.535,6.09,2.187,8.07s14.135.525,13.961-2.911S11.5-.588,4.69.131Z" transform="translate(169.317 235.499)" fill="#ffbe48"/>
  </g>
</svg>
