<svg xmlns="http://www.w3.org/2000/svg" width="24.406" height="24.86" viewBox="0 0 24.406 24.86">
  <g id="Group_2028" data-name="Group 2028" transform="translate(-1305.339 -2190.115)">
    <g id="bank" transform="translate(1305.539 2190.275)">
      <path id="Path_2779" data-name="Path 2779" d="M827.316,397.8q-5.426,0-10.851-.006a1.512,1.512,0,0,1-.687-.137.915.915,0,0,1,.021-1.607q2.128-1.428,4.265-2.844l6.565-4.378a1,1,0,0,1,1.364-.005q5.365,3.574,10.723,7.158a1.5,1.5,0,0,1,.542.64.872.872,0,0,1-.66,1.139,2.392,2.392,0,0,1-.493.039Q832.711,397.8,827.316,397.8Zm9.7-1.354c-.1-.074-.129-.1-.164-.124q-4.666-3.112-9.33-6.228a.328.328,0,0,0-.435.022q-4.56,3.046-9.125,6.086c-.1.066-.193.138-.341.243Z" transform="translate(-815.311 -388.551)" fill="#7d90aa" stroke="#7d90aa" stroke-width="0.4"/>
      <path id="Path_2780" data-name="Path 2780" d="M835.238,639.953c-3.079,0-6.158.007-9.237,0a1.988,1.988,0,1,1,.017-3.976q2.908-.006,5.816,0,6.329,0,12.658,0a1.989,1.989,0,1,1,.045,3.977c-2.042.008-4.085,0-6.126,0Zm.015-1.322h8.984c.1,0,.207,0,.311,0a.666.666,0,1,0-.013-1.331c-.072,0-.145,0-.217,0H826.226c-.59,0-.9.227-.906.659s.313.677.92.677Z" transform="translate(-823.268 -615.453)" fill="#7d90aa" stroke="#7d90aa" stroke-width="0.4"/>
      <path id="Path_2781" data-name="Path 2781" d="M855.956,520.31v-3.388a2.4,2.4,0,0,1,.01-.31.66.66,0,0,1,1.314-.017,1.84,1.84,0,0,1,.012.279q0,3.436,0,6.87a1.726,1.726,0,0,1-.026.34.653.653,0,0,1-1.289-.013,1.856,1.856,0,0,1-.021-.34Q855.955,522.019,855.956,520.31Z" transform="translate(-852.585 -505.431)" fill="#7d90aa" stroke="#7d90aa" stroke-width="0.4"/>
      <path id="Path_2782" data-name="Path 2782" d="M1047.989,520.26c0-1.171,0-2.342,0-3.513,0-.508.331-.839.756-.77a.616.616,0,0,1,.549.517,2.473,2.473,0,0,1,.029.463q0,3.326,0,6.653c0,.1.005.208,0,.311a.665.665,0,1,1-1.329.006c-.009-.093,0-.187,0-.279Q1047.99,521.956,1047.989,520.26Z" transform="translate(-1028.693 -505.402)" fill="#7d90aa" stroke="#7d90aa" stroke-width="0.4"/>
      <path id="Path_2783" data-name="Path 2783" d="M984.032,520.261c0-1.2,0-2.4,0-3.606a.661.661,0,0,1,.986-.625.708.708,0,0,1,.335.687c-.005,1.264,0,2.529,0,3.792,0,1.1,0,2.2,0,3.3a.687.687,0,0,1-.348.677.656.656,0,0,1-.972-.614c-.011-.922,0-1.844,0-2.766Q984.031,520.681,984.032,520.261Z" transform="translate(-970.039 -505.374)" fill="#7d90aa" stroke="#7d90aa" stroke-width="0.4"/>
      <path id="Path_2784" data-name="Path 2784" d="M920.088,520.264c0-1.2-.006-2.4,0-3.606a.654.654,0,0,1,.955-.637.647.647,0,0,1,.362.608q0,3.621,0,7.243a.659.659,0,1,1-1.316,0C920.084,522.668,920.088,521.466,920.088,520.264Z" transform="translate(-911.397 -505.378)" fill="#7d90aa" stroke="#7d90aa" stroke-width="0.4"/>
    </g>
  </g>
</svg>
