<svg xmlns="http://www.w3.org/2000/svg" xmlns:xlink="http://www.w3.org/1999/xlink" width="37.613" height="37.613" viewBox="0 0 37.613 37.613">
  <defs>
    <clipPath id="clip-path">
      <rect id="Rectangle_981" data-name="Rectangle 981" width="13" height="3" transform="translate(-0.41 -0.121)" fill="none"/>
    </clipPath>
    <clipPath id="clip-path-2">
      <rect id="Rectangle_982" data-name="Rectangle 982" width="10.112" height="3.494" fill="none"/>
    </clipPath>
  </defs>
  <g id="Group_5711" data-name="Group 5711" transform="translate(0 0)">
    <g id="Group_5698" data-name="Group 5698" transform="translate(0 0)">
      <path id="Path_4885" data-name="Path 4885" d="M46.463,28.231A18.231,18.231,0,1,1,28.231,10,18.231,18.231,0,0,1,46.463,28.231" transform="translate(-9.674 -9.425)" fill="#ffc20e"/>
      <path id="Path_4886" data-name="Path 4886" d="M18.806,37.613a18.806,18.806,0,0,1-13.3-32.1A18.806,18.806,0,1,1,32.1,32.1a18.683,18.683,0,0,1-13.3,5.508m0-36.463A17.656,17.656,0,1,0,36.463,18.806,17.676,17.676,0,0,0,18.806,1.15" fill="#fcaf17"/>
      <path id="Path_4887" data-name="Path 4887" d="M317.7,49.074a1.146,1.146,0,0,1-.764-.291,13.993,13.993,0,0,0-9.307-3.537,1.15,1.15,0,1,1,0-2.3,16.291,16.291,0,0,1,10.835,4.118,1.15,1.15,0,0,1-.765,2.01" transform="translate(-289.105 -40.476)" fill="#ffd400"/>
      <path id="Path_4888" data-name="Path 4888" d="M52.743,322.671a1.147,1.147,0,0,1-.484-.107,16.317,16.317,0,0,1-9.443-14.8,1.15,1.15,0,1,1,2.3,0,14.071,14.071,0,0,0,8.112,12.715,1.15,1.15,0,0,1-.486,2.194" transform="translate(-40.602 -288.979)" fill="#ffd400"/>
      <path id="Path_4889" data-name="Path 4889" d="M147.751,232.876A2.876,2.876,0,1,1,144.876,230a2.876,2.876,0,0,1,2.876,2.876" transform="translate(-132.398 -216.772)" fill="#231f20"/>
      <path id="Path_4890" data-name="Path 4890" d="M186.3,247.15a1.15,1.15,0,1,0-1.15,1.15,1.15,1.15,0,0,0,1.15-1.15" transform="translate(-173.742 -230.972)" fill="#939598"/>
      <path id="Path_4891" data-name="Path 4891" d="M415.751,232.876A2.876,2.876,0,1,1,412.876,230a2.876,2.876,0,0,1,2.876,2.876" transform="translate(-388.353 -216.772)" fill="#231f20"/>
      <path id="Path_4892" data-name="Path 4892" d="M456.3,247.15a1.15,1.15,0,1,0-1.15,1.15,1.15,1.15,0,0,0,1.15-1.15" transform="translate(-431.583 -230.972)" fill="#939598"/>
      <g id="Group_5713" data-name="Group 5713" transform="translate(12.322 24.675)">
        <g id="Group_5712" data-name="Group 5712" transform="translate(0 0)" clip-path="url(#clip-path)">
          <rect id="Rectangle_980" data-name="Rectangle 980" width="13" height="3" rx="1.5" transform="translate(-0.41 -0.121)" fill="#231f20"/>
        </g>
      </g>
      <g id="Group_5715" data-name="Group 5715" transform="translate(6.542 10.624)">
        <g id="Group_5714" data-name="Group 5714" transform="translate(0 0)" clip-path="url(#clip-path-2)">
          <path id="Path_4925" data-name="Path 4925" d="M10.112,2.669a2.97,2.97,0,0,1-.436.229,6.152,6.152,0,0,1-1.224.4A7.327,7.327,0,0,1,7.6,3.44a9.594,9.594,0,0,1-.961.055c-.167,0-.337-.012-.509-.022a3.934,3.934,0,0,1-.521-.048,7.876,7.876,0,0,1-1.052-.2c-.174-.047-.349-.089-.52-.142s-.337-.123-.5-.184a6.476,6.476,0,0,1-.943-.438,5.954,5.954,0,0,1-.82-.52c-.124-.092-.247-.176-.359-.268l-.308-.286A6.84,6.84,0,0,1,.6.868C.463.7.354.538.264.411.086.156,0,0,0,0S.177.057.458.174C.6.234.769.3.953.39s.411.156.638.252l.352.149.385.136c.263.093.527.209.817.289s.572.2.875.274c.15.044.3.083.451.133s.308.074.461.112c.3.091.616.146.922.217s.612.115.907.185c.3.042.587.109.864.147s.542.091.789.126l1.7.259" transform="translate(0 0)" fill="#231f20"/>
        </g>
      </g>
      <g id="Group_5716" data-name="Group 5716" transform="translate(20.624 10.624)">
        <g id="Group_5714-2" data-name="Group 5714" transform="translate(0 0)" clip-path="url(#clip-path-2)">
          <path id="Path_4925-2" data-name="Path 4925" d="M0,2.669A2.97,2.97,0,0,0,.436,2.9a6.152,6.152,0,0,0,1.224.4,7.327,7.327,0,0,0,.848.142,9.594,9.594,0,0,0,.961.055c.167,0,.337-.012.509-.022A3.934,3.934,0,0,0,4.5,3.425a7.876,7.876,0,0,0,1.052-.2c.174-.047.349-.089.52-.142s.337-.123.5-.184a6.476,6.476,0,0,0,.943-.438,5.954,5.954,0,0,0,.82-.52c.124-.092.247-.176.359-.268l.308-.286A6.84,6.84,0,0,0,9.513.868c.136-.172.245-.33.334-.456.178-.255.264-.411.264-.411s-.177.057-.458.174c-.14.059-.31.128-.495.216s-.411.156-.638.252L8.169.791,7.783.927c-.263.093-.527.209-.817.289s-.572.2-.875.274c-.15.044-.3.083-.451.133s-.308.074-.461.112c-.3.091-.616.146-.922.217s-.612.115-.907.185c-.3.042-.587.109-.864.147s-.542.091-.789.126L0,2.669" transform="translate(0 0)" fill="#231f20"/>
        </g>
      </g>
    </g>
  </g>
</svg>
