<svg xmlns="http://www.w3.org/2000/svg" width="37.615" height="37.614" viewBox="0 0 37.615 37.614">
  <g id="Group_5694" data-name="Group 5694" transform="translate(0 0)">
    <g id="Group_5695" data-name="Group 5695" transform="translate(0 0)">
      <path id="Path_4874" data-name="Path 4874" d="M46.464,28.232A18.232,18.232,0,1,1,28.232,10,18.232,18.232,0,0,1,46.464,28.232" transform="translate(-9.425 -9.425)" fill="#ffc20e"/>
      <path id="Path_4875" data-name="Path 4875" d="M18.807,37.614A18.807,18.807,0,0,1,5.509,5.509a18.807,18.807,0,1,1,26.6,26.6,18.684,18.684,0,0,1-13.3,5.509m0-36.464A17.657,17.657,0,1,0,36.464,18.807,17.677,17.677,0,0,0,18.807,1.15" transform="translate(0)" fill="#fcaf17"/>
      <path id="Path_4876" data-name="Path 4876" d="M318.739,49.074a1.145,1.145,0,0,1-.764-.291,13.994,13.994,0,0,0-9.307-3.537,1.15,1.15,0,1,1,0-2.3A16.292,16.292,0,0,1,319.5,47.064a1.15,1.15,0,0,1-.765,2.01" transform="translate(-289.831 -40.476)" fill="#ffd400"/>
      <path id="Path_4877" data-name="Path 4877" d="M53.779,322.672a1.146,1.146,0,0,1-.484-.107,16.317,16.317,0,0,1-9.443-14.8,1.15,1.15,0,0,1,2.3,0,14.071,14.071,0,0,0,8.113,12.715,1.15,1.15,0,0,1-.486,2.194" transform="translate(-41.329 -288.978)" fill="#ffd400"/>
      <path id="Path_4878" data-name="Path 4878" d="M151.368,231.75a3.35,3.35,0,0,0-3.35,3.35h6.7a3.35,3.35,0,0,0-3.35-3.35" transform="translate(-139.505 -218.421)" fill="#231f20"/>
      <path id="Path_4879" data-name="Path 4879" d="M196.3,243.15a1.15,1.15,0,1,1-1.15-1.15,1.15,1.15,0,0,1,1.15,1.15" transform="translate(-182.842 -228.081)" fill="#939598"/>
      <path id="Path_4880" data-name="Path 4880" d="M165.15,262.575a.575.575,0,1,1-.575-.575.575.575,0,0,1,.575.575" transform="translate(-154.568 -246.931)" fill="#939598"/>
      <path id="Path_4881" data-name="Path 4881" d="M393.868,231.75a3.35,3.35,0,0,0-3.35,3.35h6.7a3.35,3.35,0,0,0-3.35-3.35" transform="translate(-368.058 -218.421)" fill="#231f20"/>
      <path id="Path_4882" data-name="Path 4882" d="M440.3,243.15a1.15,1.15,0,1,1-1.15-1.15,1.15,1.15,0,0,1,1.15,1.15" transform="translate(-412.809 -228.081)" fill="#939598"/>
      <path id="Path_4883" data-name="Path 4883" d="M409.15,262.575a.575.575,0,1,1-.575-.575.575.575,0,0,1,.575.575" transform="translate(-384.534 -246.931)" fill="#939598"/>
      <path id="Path_4884" data-name="Path 4884" d="M230.882,377.438a.288.288,0,0,1-.2-.491,7.764,7.764,0,0,1,10.981,0,.288.288,0,1,1-.407.407,7.189,7.189,0,0,0-10.167,0,.287.287,0,0,1-.2.084" transform="translate(-217.331 -353.124)" fill="#231f20"/>
    </g>
  </g>
</svg>
