<svg xmlns="http://www.w3.org/2000/svg" width="37.323" height="37.323" viewBox="0 0 37.323 37.323">
  <g id="Group_5709" data-name="Group 5709" transform="translate(0)">
    <g id="Group_5710" data-name="Group 5710" transform="translate(0 0)">
      <path id="Path_4916" data-name="Path 4916" d="M46.182,28.091A18.091,18.091,0,1,1,28.091,10,18.091,18.091,0,0,1,46.182,28.091" transform="translate(-9.429 -9.429)" fill="#ffc20e"/>
      <path id="Path_4917" data-name="Path 4917" d="M18.662,37.323A18.662,18.662,0,0,1,5.466,5.466,18.662,18.662,0,1,1,31.858,31.858a18.54,18.54,0,0,1-13.2,5.466m0-36.182a17.52,17.52,0,1,0,17.52,17.52,17.54,17.54,0,0,0-17.52-17.52" fill="#fcaf17"/>
      <path id="Path_4918" data-name="Path 4918" d="M318.653,49.649a1.137,1.137,0,0,1-.758-.288,13.885,13.885,0,0,0-9.235-3.509,1.141,1.141,0,0,1,0-2.283,16.166,16.166,0,0,1,10.752,4.086,1.141,1.141,0,0,1-.759,1.994" transform="translate(-289.968 -41.082)" fill="#ffd400"/>
      <path id="Path_4919" data-name="Path 4919" d="M53.7,323.17a1.138,1.138,0,0,1-.481-.107,16.191,16.191,0,0,1-9.37-14.687,1.141,1.141,0,1,1,2.283,0,13.962,13.962,0,0,0,8.05,12.617,1.142,1.142,0,0,1-.482,2.177" transform="translate(-41.348 -289.701)" fill="#ffd400"/>
      <path id="Path_4920" data-name="Path 4920" d="M384.742,273.484h3.424a.742.742,0,1,0,0-1.484h-3.424a.742.742,0,0,0,0,1.484" transform="translate(-362.085 -256.477)" fill="#231f20"/>
      <path id="Path_4921" data-name="Path 4921" d="M384.915,233.189l2.421-2.421a.761.761,0,0,0-1.076-1.076l-2.421,2.421a.761.761,0,0,0,1.076,1.076" transform="translate(-361.724 -216.374)" fill="#231f20"/>
      <path id="Path_4922" data-name="Path 4922" d="M187.995,230a2,2,0,1,1-2-2,2,2,0,0,1,2,2" transform="translate(-173.499 -214.988)" fill="#231f20"/>
      <path id="Path_4923" data-name="Path 4923" d="M223.027,242.514a.514.514,0,1,1-.514-.514.514.514,0,0,1,.514.514" transform="translate(-209.331 -228.189)" fill="#939598"/>
      <path id="Path_4924" data-name="Path 4924" d="M208.522,417.13c-2.689,0-5.217-1.584-7.118-4.459a.6.6,0,0,1,0-.61.224.224,0,0,1,.4,0c1.794,2.712,4.178,4.206,6.715,4.206s4.921-1.494,6.715-4.206a.224.224,0,0,1,.4,0,.6.6,0,0,1,0,.61c-1.9,2.875-4.429,4.459-7.118,4.459" transform="translate(-189.831 -390.186)" fill="#231f20"/>
    </g>
  </g>
</svg>
