<svg xmlns="http://www.w3.org/2000/svg" width="32.42" height="32.42" viewBox="0 0 32.42 32.42">
  <g id="cashback" transform="translate(-31.5 -202.5)">
    <g id="Group_4390" data-name="Group 4390">
      <g id="Group_4388" data-name="Group 4388" transform="translate(-0.5 0.5)">
        <circle id="Ellipse_422" data-name="Ellipse 422" cx="16.21" cy="16.21" r="16.21" transform="translate(32 202)" fill="none"/>
      </g>
      <g id="Group_1639" data-name="Group 1639" transform="translate(-1076.672 -58.522)">
        <path id="Path_1506" data-name="Path 1506" d="M1131.777,280.838h-15.656a.531.531,0,0,1-.531-.531v-3a.531.531,0,0,1,.531-.531h15.656a.531.531,0,0,1,.531.531v3A.531.531,0,0,1,1131.777,280.838Z" transform="translate(0 -4.192)" fill="none" stroke="#fff" stroke-linecap="round" stroke-linejoin="round" stroke-miterlimit="10" stroke-width="1.2"/>
        <path id="Path_1507" data-name="Path 1507" d="M1132.834,288.53v4.075a1.859,1.859,0,0,1-1.857,1.857h-10.029a1.859,1.859,0,0,1-1.857-1.857V286.32" transform="translate(-2.013 -9.678)" fill="none" stroke="#fff" stroke-linecap="round" stroke-linejoin="round" stroke-miterlimit="10" stroke-width="1.2"/>
        <path id="Path_1508" data-name="Path 1508" d="M1135.26,271.8a2.312,2.312,0,0,1,2.312-2.312h0a2.311,2.311,0,0,1,2.312,2.312" transform="translate(-11.311)" fill="none" stroke="#fff" stroke-linecap="round" stroke-linejoin="round" stroke-miterlimit="10" stroke-width="1.2"/>
        <path id="Path_1509" data-name="Path 1509" d="M1135.26,305.49" transform="translate(-11.311 -20.701)" fill="none" stroke="#7d90aa" stroke-linecap="round" stroke-linejoin="round" stroke-miterlimit="10" stroke-width="1.2"/>
        <line id="Line_613" data-name="Line 613" y2="7.862" transform="translate(1123.949 276.927)" fill="none" stroke="#fff" stroke-linecap="round" stroke-linejoin="round" stroke-miterlimit="10" stroke-width="1.2"/>
        <path id="Path_1510" data-name="Path 1510" d="M1124.37,271.8a2.311,2.311,0,0,1,2.312-2.312h0a2.311,2.311,0,0,1,2.312,2.312" transform="translate(-5.049)" fill="none" stroke="#fff" stroke-linecap="round" stroke-linejoin="round" stroke-miterlimit="10" stroke-width="1.2"/>
      </g>
    </g>
  </g>
</svg>
