<svg xmlns="http://www.w3.org/2000/svg" width="32.42" height="32.42" viewBox="0 0 32.42 32.42">
  <g id="Group_5859" data-name="Group 5859" transform="translate(-32 -202)">
    <g id="Group_4390" data-name="Group 4390">
      <g id="Group_4388" data-name="Group 4388">
        <circle id="Ellipse_422" data-name="Ellipse 422" cx="16.21" cy="16.21" r="16.21" transform="translate(32 202)" fill="none"/>
      </g>
      <g id="Group_2028" data-name="Group 2028" transform="translate(-1265.68 -1979.477)">
        <g id="Group_5860" data-name="Group 5860" transform="translate(1306.062 2190.954)">
          <g id="Group_2453" data-name="Group 2453" transform="translate(0 0)">
            <g id="Group_2452" data-name="Group 2452">
              <path id="Path_2353" data-name="Path 2353" d="M-1351.916,3498.588h-3.783a1.269,1.269,0,0,1-1.271-1.271v-.5a1.269,1.269,0,0,1,1.271-1.271h3.783Z" transform="translate(1367.167 -3488.573)" fill="none" stroke="#fff" stroke-linecap="round" stroke-linejoin="round" stroke-miterlimit="10" stroke-width="1.3"/>
              <path id="Path_2354" data-name="Path 2354" d="M-1365.789,3481.063v-.289a1.694,1.694,0,0,0-1.695-1.695h-11.5a2.054,2.054,0,0,0-2.055,2.055h0a2.054,2.054,0,0,0,2.055,2.055h11.5a1.694,1.694,0,0,1,1.695,1.694v6.05a1.269,1.269,0,0,1-1.271,1.271H-1378.5a2.544,2.544,0,0,1-2.542-2.542v-8.43a2.148,2.148,0,0,1,2.148-2.148h8.269" transform="translate(1381.04 -3479.08)" fill="none" stroke="#fff" stroke-linecap="round" stroke-linejoin="round" stroke-miterlimit="10" stroke-width="1.3"/>
            </g>
          </g>
        </g>
      </g>
    </g>
  </g>
</svg>
