<svg xmlns="http://www.w3.org/2000/svg" width="24.007" height="25.793" viewBox="0 0 24.007 25.793">
  <g id="Group_3052" data-name="Group 3052" transform="translate(24.007) rotate(90)">
    <g id="Group_3046" data-name="Group 3046" transform="translate(0 0)">
      <path id="Path_2995" data-name="Path 2995" d="M26.323,27.981a1.5,1.5,0,0,0-1.38-1.185c-.64-.033-1.288-.023-1.914-.013l-.325,0a.655.655,0,0,0-.473.207.661.661,0,0,0,.475,1.113c.061,0,.122,0,.182,0H23.5q.62,0,1.24,0c.24,0,.259.092.26.209q.007,2.087,0,4.174c0,.091-.024.177-.2.2a1.5,1.5,0,0,1-.175,0H9.438c-.671,0-.885.218-.885.9v.38c0,.311,0,.623,0,.933,0,.172-.045.212-.1.241s-.1.054-.257-.068l-5.7-4.5a.246.246,0,0,1-.112-.172.25.25,0,0,1,.114-.174l5.72-4.515c.131-.1.182-.077.223-.058.06.029.113.068.111.223,0,.333,0,.667,0,1v.362c0,.651.218.87.862.87H20.464a1.656,1.656,0,0,0,.225-.008.627.627,0,0,0,.574-.591.619.619,0,0,0-.465-.688,1.474,1.474,0,0,0-.407-.04H9.881v-.122c0-.269,0-.525,0-.781a1.468,1.468,0,0,0-.857-1.415,1.453,1.453,0,0,0-1.62.2l-.436.344Q4.314,27.1,1.664,29.2a1.546,1.546,0,0,0-.611,1.2,1.565,1.565,0,0,0,.621,1.215q1.634,1.293,3.27,2.583l2.429,1.919a1.6,1.6,0,0,0,1,.382,1.536,1.536,0,0,0,1.51-1.613c0-.245,0-.49,0-.745v-.118h14.8a1.517,1.517,0,0,0,1.6-1.114l.058-.071V28.056Z" transform="translate(-0.541 -12.492)" fill="#e45415"/>
      <path id="Path_2996" data-name="Path 2996" d="M16.455,9.722v.166c0,.292,0,.575,0,.857a1.479,1.479,0,0,0,.782,1.266,1.486,1.486,0,0,0,1.493-.039,3.9,3.9,0,0,0,.395-.289l.956-.755q2.271-1.79,4.539-3.582a1.6,1.6,0,0,0,.658-1.257,1.518,1.518,0,0,0-.613-1.2Q22.089,2.845,19.5.809L18.93.362A1.453,1.453,0,0,0,17.283.174a1.467,1.467,0,0,0-.829,1.405c0,.251,0,.5,0,.764v.136H5.841a.685.685,0,0,0-.777.657.62.62,0,0,0,.174.458.805.805,0,0,0,.591.213H17c.54,0,.782-.247.783-.8V2.75c0-.385,0-.769,0-1.154,0-.17.046-.209.1-.238s.1-.053.258.07l5.681,4.486a.284.284,0,0,1,.13.184.3.3,0,0,1-.137.194l-5.661,4.471c-.155.122-.2.111-.262.083s-.111-.07-.108-.275c0-.289,0-.578,0-.867V9.136a.645.645,0,0,0-.393-.675,1.272,1.272,0,0,0-.475-.067l-15.222,0c-.354,0-.364-.03-.364-.352V4.16c0-.328.022-.35.341-.351h.089c.595,0,1.191,0,1.787,0a.669.669,0,0,0,.668-.379.632.632,0,0,0-.024-.619.748.748,0,0,0-.642-.331c-.653-.007-1.3,0-1.956,0A1.508,1.508,0,0,0,0,4.093V8.022a1.536,1.536,0,0,0,1.7,1.7Z" transform="translate(0 0)" fill="#e45415"/>
      <path id="Path_2997" data-name="Path 2997" d="M5.353,12.457c-.178,0-.355,0-.535,0H4.8l0-.535a.771.771,0,0,0-.216-.559.623.623,0,0,0-.46-.173.676.676,0,0,0-.651.726q-.007.571,0,1.141a.666.666,0,0,0,.7.728c.2,0,.394.007.59.007s.4,0,.605-.007a.737.737,0,0,0,.528-.223.641.641,0,0,0,.171-.471.668.668,0,0,0-.709-.632" transform="translate(-1.779 -5.751)" fill="#fea400"/>
      <path id="Path_2998" data-name="Path 2998" d="M44.964,36.759a.67.67,0,0,0-.7.643.639.639,0,0,0,.174.464.745.745,0,0,0,.531.219q.3.007.6.007t.591-.007a.663.663,0,0,0,.695-.706c.007-.389.005-.778,0-1.166a.672.672,0,0,0-.66-.719.682.682,0,0,0-.666.711c0,.174,0,.348,0,.533v.02H45.52c-.19,0-.373,0-.556,0" transform="translate(-22.751 -18.244)" fill="#fea400"/>
    </g>
  </g>
</svg>
