<svg id="Group_2962" data-name="Group 2962" xmlns="http://www.w3.org/2000/svg" xmlns:xlink="http://www.w3.org/1999/xlink" width="26.488" height="26.488" viewBox="0 0 26.488 26.488">
  <defs>
    <clipPath id="clip-path">
      <rect id="Rectangle_395" data-name="Rectangle 395" width="26.488" height="26.488" fill="#e45415"/>
    </clipPath>
  </defs>
  <g id="Group_2961" data-name="Group 2961" clip-path="url(#clip-path)">
    <path id="Path_2843" data-name="Path 2843" d="M21.6,30.252a2.425,2.425,0,0,1-1.748-.682.567.567,0,1,1,.8-.8,2.01,2.01,0,0,0,2.627-.356l17.957-16.39a1.933,1.933,0,0,0,.61-1.411,2.892,2.892,0,0,0-.876-2.093.567.567,0,0,1,.8-.8,4.03,4.03,0,0,1,1.206,2.925,3.052,3.052,0,0,1-.982,2.22L24.049,29.254a3.723,3.723,0,0,1-2.444,1" transform="translate(-16.501 -6.328)" fill="#e45415"/>
    <path id="Path_2844" data-name="Path 2844" d="M16.905,23.3a.566.566,0,0,1-.4-.166,3.086,3.086,0,0,1,.313-4.188L33.214.981A3.05,3.05,0,0,1,35.431,0a4.029,4.029,0,0,1,2.925,1.206.567.567,0,1,1-.8.8,2.891,2.891,0,0,0-2.094-.876,1.931,1.931,0,0,0-1.407.606l-16.4,17.964a2.008,2.008,0,0,0-.352,2.624.567.567,0,0,1-.4.969" transform="translate(-13.259 -0.001)" fill="#e45415"/>
    <path id="Path_2845" data-name="Path 2845" d="M87.632,79.143a1.358,1.358,0,0,1-1.134-.612l-5.6-8.385a.567.567,0,1,1,.943-.63l5.6,8.385a.238.238,0,0,0,.436-.143l-.647-14.33a.567.567,0,1,1,1.133-.051l.647,14.33a1.36,1.36,0,0,1-.943,1.366,1.4,1.4,0,0,1-.436.07" transform="translate(-67.71 -52.655)" fill="#e45415"/>
    <path id="Path_2846" data-name="Path 2846" d="M124.712,85.36a.567.567,0,0,1-.4-.968l1.935-1.935a.567.567,0,0,1,.8.8l-1.935,1.935a.566.566,0,0,1-.4.166" transform="translate(-104.031 -68.959)" fill="#e45415"/>
    <path id="Path_2847" data-name="Path 2847" d="M9.312,40.22a.564.564,0,0,1-.314-.1l-8.385-5.6a1.372,1.372,0,0,1,.824-2.512l14.33.647a.567.567,0,1,1-.051,1.133l-14.33-.647H1.37a.238.238,0,0,0-.128.436l8.385,5.6a.567.567,0,0,1-.315,1.039" transform="translate(0 -26.823)" fill="#e45415"/>
    <path id="Path_2848" data-name="Path 2848" d="M64.343,24.992a.567.567,0,0,1-.4-.968l1.935-1.935a.567.567,0,0,1,.8.8l-1.935,1.935a.566.566,0,0,1-.4.166" transform="translate(-53.443 -18.371)" fill="#e45415"/>
    <path id="Path_2849" data-name="Path 2849" d="M40.367,130.342a1.446,1.446,0,0,1-1.024-.426l-1.787-1.787a.567.567,0,0,1,.8-.8l1.787,1.787a.318.318,0,0,0,.542-.23l-.074-4.108a.567.567,0,1,1,1.134-.021l.074,4.108a1.455,1.455,0,0,1-1.454,1.479" transform="translate(-31.332 -104.076)" fill="#e45415"/>
    <path id="Path_2850" data-name="Path 2850" d="M3.987,103.182a.566.566,0,0,1-.4-.166L1.8,101.228a1.452,1.452,0,0,1,1.052-2.478l4.108.074a.567.567,0,0,1-.021,1.134l-4.108-.074a.3.3,0,0,0-.3.193.307.307,0,0,0,.068.349l1.787,1.787a.567.567,0,0,1-.4.968" transform="translate(-1.151 -82.751)" fill="#e45415"/>
    <path id="Path_2851" data-name="Path 2851" d="M128.978,22.679a.566.566,0,0,1-.4-.166L126.965,20.9a.567.567,0,1,1,.8-.8l1.612,1.612a.567.567,0,0,1-.4.968" transform="translate(-106.255 -16.703)" fill="#fea400"/>
  </g>
</svg>
