<svg id="Group_2899" data-name="Group 2899" xmlns="http://www.w3.org/2000/svg" width="32.42" height="32.42" viewBox="0 0 32.42 32.42">
  <g id="Group_4390" data-name="Group 4390">
    <g id="Group_4388" data-name="Group 4388">
      <g id="Ellipse_422" data-name="Ellipse 422" fill="#fff2ec" stroke="#e45415" stroke-width="1">
        <circle cx="16.21" cy="16.21" r="16.21" stroke="none"/>
        <circle cx="16.21" cy="16.21" r="15.71" fill="none"/>
      </g>
    </g>
    <g id="ips" transform="translate(-845.61 -501.393)">
      <path id="Path_3694" data-name="Path 3694" d="M863.425,527.024H862.14c-.028-.021-.052-.058-.082-.063a5.033,5.033,0,0,1-3.79-2.73.667.667,0,0,0-.511-.264,5.1,5.1,0,0,1-5.113-3.8c-.146-.49-.237-1-.353-1.5V517.28c.042-.133.094-.263.123-.4a4.485,4.485,0,0,1,1.653-2.792,2.1,2.1,0,0,0,.88-1.456,5.284,5.284,0,0,1,3.986-4.112c.42-.135.853-.229,1.28-.342H861.6c.029.02.055.054.087.06a4.951,4.951,0,0,1,3.642,2.62.759.759,0,0,0,.6.3,5.1,5.1,0,0,1,5.094,3.922c.117.444.217.892.326,1.338v1.285c-.043.169-.09.338-.129.509a4.871,4.871,0,0,1-1.973,3.072.938.938,0,0,0-.47.881,1.968,1.968,0,0,1-.074.527,5.307,5.307,0,0,1-3.644,3.864C864.528,526.754,863.97,526.872,863.425,527.024Zm1.444-6.033a3.106,3.106,0,0,0,2.774.1.4.4,0,0,0,.154-.294,3.082,3.082,0,0,0-2.691-2.768,13.749,13.749,0,0,0-1.7.077c-.429.02-.59.194-.584.668a4.962,4.962,0,0,1-3.3,4.832c-.128.049-.248.117-.418.2a2.546,2.546,0,0,0,1.978,1.508,7.3,7.3,0,0,0,6.02-2.022,4.93,4.93,0,0,0,.685-1.078l-.121-.116a3.169,3.169,0,0,1-.453.071,11.7,11.7,0,0,1-2.275-.012c-.6-.109-1.073-.228-1.45.355-.009.014-.065,0-.153-.008l-.471-2.44,2.6.378C865.2,520.686,865.035,520.837,864.869,520.992Zm-9.02-7.827c.189.041.243.07.289.059a5.791,5.791,0,0,1,2.908-.008c.127.035.352-.1.464-.223a8.7,8.7,0,0,0,.61-.854c.278.938.513,1.725.774,2.605l-2.536-.18c.179-.339.107-.54-.238-.521-.668.035-1.336.081-2,.163a.465.465,0,0,0-.271.361,3.079,3.079,0,0,0,2.757,2.818,14.53,14.53,0,0,0,1.6-.076c.491-.02.644-.237.626-.75a4.84,4.84,0,0,1,3.206-4.822c.143-.057.284-.121.471-.2a2.524,2.524,0,0,0-1.871-1.429,7.282,7.282,0,0,0-6.114,2.031A5.219,5.219,0,0,0,855.849,513.164Zm12.844,7.243a2.8,2.8,0,0,0,.853-1.706,7.66,7.66,0,0,0-.572-4.186,6.192,6.192,0,0,0-1.215-1.786,2.142,2.142,0,0,0-1.9-.591c.043.375.094.7.115,1.036.05.8.045.8.816.935.023,0,.036.056.09.146l-1.628,1.943-1.345-2.339,1.023.195V512.3c-2.139.341-2.694,2.7-2.291,4.154C865.709,516.072,867.744,517.37,868.693,520.407Zm-9.987,2.461a4.409,4.409,0,0,0,.451-.1,3.076,3.076,0,0,0,1.951-3.191c.011-.813.011-.813-.8-.782a4.949,4.949,0,0,1-5.206-3.593c-.045-.131-.1-.259-.152-.4a2.374,2.374,0,0,0-.858,1.625,7.807,7.807,0,0,0,.547,4.141,5.947,5.947,0,0,0,1.031,1.664,2.481,2.481,0,0,0,2.109.8,4.975,4.975,0,0,1-.111-1.046c.079-.725.025-1.315-.886-1.388-.008,0-.015-.029-.056-.112l2-1.41.847,2.366-.868-.327C858.706,521.727,858.706,522.27,858.706,522.868Z" transform="translate(0 0)" fill="#e45415"/>
    </g>
  </g>
</svg>
