<svg id="Group_2972" data-name="Group 2972" xmlns="http://www.w3.org/2000/svg" xmlns:xlink="http://www.w3.org/1999/xlink" width="30.487" height="25.19" viewBox="0 0 30.487 25.19">
  <defs>
    <clipPath id="clip-path">
      <rect id="Rectangle_399" data-name="Rectangle 399" width="30.487" height="25.19" fill="#e45415"/>
    </clipPath>
  </defs>
  <g id="Group_2971" data-name="Group 2971" clip-path="url(#clip-path)">
    <path id="Path_2870" data-name="Path 2870" d="M56.759,9.8,52.54,7.366l-.494-.284L47.264,4.33a.54.54,0,0,0-.672.081,2.129,2.129,0,0,1-2.548.365,2.132,2.132,0,0,1-.96-2.392.537.537,0,0,0-.271-.616L39.915.1a.571.571,0,0,0-.789.131L33.156,10.3h1.288l5.344-8.989,2.119,1.218a3.384,3.384,0,0,0,1.562,3.245A3.386,3.386,0,0,0,47.057,5.5L49.81,7.083,51.749,8.2l3.917,2.255-2.734,4.908V17.6l4-7.114a.467.467,0,0,0-.178-.688" transform="translate(-26.532 0)" fill="#e45415"/>
    <path id="Path_2871" data-name="Path 2871" d="M25.148,61.267H11.409a.729.729,0,0,1-.679-.563,2.708,2.708,0,0,0-2.54-2.032,2.715,2.715,0,0,0-2.54,2.04.721.721,0,0,1-.679.556H.775A.824.824,0,0,1,0,60.5V45.72a.717.717,0,0,1,.775-.636h4.2a.672.672,0,0,1,.679.5,2.678,2.678,0,0,0,2.54,2,2.671,2.671,0,0,0,2.54-1.993.679.679,0,0,1,.679-.508H25.148a.587.587,0,0,1,.624.636V60.5a.7.7,0,0,1-.624.763m-13.232-1.4H24.374V46.482H11.916a4.243,4.243,0,0,1-3.727,2.548,4.243,4.243,0,0,1-3.727-2.548H1.4V59.868H4.463A3.934,3.934,0,0,1,8.189,57.32a3.934,3.934,0,0,1,3.727,2.548" transform="translate(0 -36.077)" fill="#e45415"/>
    <path id="Path_2872" data-name="Path 2872" d="M38.766,92.62a.643.643,0,0,1-.138-.014.754.754,0,0,1-.13-.04.847.847,0,0,1-.12-.064.668.668,0,0,1-.108-.088.606.606,0,0,1-.086-.106.572.572,0,0,1-.064-.12.64.64,0,0,1-.04-.132.615.615,0,0,1-.014-.136.7.7,0,0,1,.2-.5.648.648,0,0,1,.108-.086.572.572,0,0,1,.12-.064.759.759,0,0,1,.13-.042.7.7,0,0,1,.837.687.764.764,0,0,1-.014.136.8.8,0,0,1-.04.132.827.827,0,0,1-.064.12.752.752,0,0,1-.088.106.7.7,0,0,1-.494.206" transform="translate(-30.462 -72.996)" fill="#fea400"/>
    <path id="Path_2873" data-name="Path 2873" d="M38.766,73.62a.642.642,0,0,1-.138-.014.75.75,0,0,1-.13-.04.843.843,0,0,1-.12-.064.668.668,0,0,1-.108-.088.613.613,0,0,1-.086-.106.572.572,0,0,1-.064-.12.641.641,0,0,1-.04-.132.614.614,0,0,1-.014-.136.7.7,0,0,1,.2-.5.649.649,0,0,1,.108-.086.572.572,0,0,1,.12-.064.76.76,0,0,1,.13-.042.7.7,0,0,1,.837.687.763.763,0,0,1-.014.136.8.8,0,0,1-.04.132.827.827,0,0,1-.064.12.763.763,0,0,1-.088.106.7.7,0,0,1-.494.206" transform="translate(-30.462 -57.792)" fill="#fea400"/>
    <path id="Path_2874" data-name="Path 2874" d="M96.775,101.483h-2.2a.7.7,0,1,1,0-1.4h2.2a.7.7,0,0,1,0,1.4" transform="translate(-75.123 -80.089)" fill="#fea400"/>
    <path id="Path_2875" data-name="Path 2875" d="M67.173,101.483h-3.6a.7.7,0,0,1,0-1.4h3.6a.7.7,0,0,1,0,1.4" transform="translate(-50.316 -80.089)" fill="#fea400"/>
    <path id="Path_2876" data-name="Path 2876" d="M65.775,65.482h-2.2a.7.7,0,1,1,0-1.4h2.2a.7.7,0,0,1,0,1.4" transform="translate(-50.316 -51.281)" fill="#fea400"/>
    <path id="Path_2877" data-name="Path 2877" d="M91.173,65.482h-3.6a.7.7,0,0,1,0-1.4h3.6a.7.7,0,0,1,0,1.4" transform="translate(-69.521 -51.281)" fill="#fea400"/>
    <path id="Path_2878" data-name="Path 2878" d="M71.968,83.482H63.577a.7.7,0,1,1,0-1.4h8.391a.7.7,0,1,1,0,1.4" transform="translate(-50.316 -65.685)" fill="#fea400"/>
  </g>
</svg>
