<svg xmlns="http://www.w3.org/2000/svg" width="31.212" height="21.591" viewBox="0 0 31.212 21.591">
  <g id="rccard" transform="translate(-767.8 -407.704)">
    <path id="Path_3695" data-name="Path 3695" d="M798.812,410.316v16.37a.456.456,0,0,0-.037.08,2.777,2.777,0,0,1-3.037,2.327H775.043q-2.121,0-4.241,0a2.766,2.766,0,0,1-1.936-.762,3.072,3.072,0,0,1-.866-1.644v-16.37a.7.7,0,0,0,.034-.079,2.793,2.793,0,0,1,3.1-2.329h19.553c1.785,0,3.57-.015,5.354.006a2.673,2.673,0,0,1,2.536,1.663A5.946,5.946,0,0,1,798.812,410.316Zm-15.408-.481H771.01c-.8,0-1.084.289-1.084,1.086v15.164c0,.8.29,1.084,1.087,1.084H795.8c.8,0,1.084-.29,1.084-1.086V410.918c0-.794-.29-1.083-1.087-1.083Z" transform="translate(0 0)" fill="#e45415" stroke="#fff" stroke-width="0.4"/>
    <path id="Path_3696" data-name="Path 3696" d="M821.745,470.793a9.7,9.7,0,0,1-.075,1.136,2.128,2.128,0,0,1-2.075,1.751c-.511.01-1.022.011-1.533,0a2.162,2.162,0,0,1-2.113-2.118q-.016-.767,0-1.533a2.161,2.161,0,0,1,2.11-2.12c.521-.011,1.042-.013,1.563,0a2.162,2.162,0,0,1,2.1,2.1c.007.26,0,.521,0,.782Zm-1.947-.006c0-.22,0-.44,0-.66a.261.261,0,0,0-.3-.3c-.45,0-.9-.016-1.349.013a.391.391,0,0,0-.268.268c-.029.448-.013.9-.014,1.349a.262.262,0,0,0,.3.3c.45,0,.9,0,1.35,0a.251.251,0,0,0,.279-.279C819.8,471.246,819.8,471.017,819.8,470.787Z" transform="translate(-44.095 -55.182)" fill="#fea400" stroke="#fff" stroke-width="0.4"/>
    <path id="Path_3697" data-name="Path 3697" d="M1063.682,481.1a7.243,7.243,0,0,1-1.778,4.741.966.966,0,1,1-1.466-1.248,5.274,5.274,0,0,0,0-6.986.966.966,0,1,1,1.475-1.238A7.224,7.224,0,0,1,1063.682,481.1Z" transform="translate(-268.717 -62.599)" fill="#fea400" stroke="#fff" stroke-width="0.4"/>
    <path id="Path_3698" data-name="Path 3698" d="M1032.909,508.591a3.777,3.777,0,0,1-.778,2.171.958.958,0,0,1-1.373.247.969.969,0,0,1-.193-1.362,1.913,1.913,0,0,0,.006-2.393.963.963,0,1,1,1.573-1.108A4,4,0,0,1,1032.909,508.591Z" transform="translate(-241.319 -89.946)" fill="#fea400" stroke="#fff" stroke-width="0.4"/>
  </g>
</svg>
