<svg xmlns="http://www.w3.org/2000/svg" width="28.714" height="28.731" viewBox="0 0 28.714 28.731">
  <g id="television" transform="translate(-811.56 -391.527)">
    <path id="Path_2810" data-name="Path 2810" d="M812.655,420.156a1.411,1.411,0,0,1-1-1.54q.019-9.052.009-18.1a3.5,3.5,0,0,1,.03-.5,1.2,1.2,0,0,1,1.093-1.019c.138-.012.278-.008.418-.008h11.3c-.085-.1-.137-.173-.2-.238l-1.366-1.515c-1.1-1.218-2.46-2.726-3.819-4.236a2.7,2.7,0,0,1-.341-.436.594.594,0,0,1,.875-.752,2.017,2.017,0,0,1,.281.269q2.877,3.162,5.752,6.326c.068.075.139.147.26.273a1.883,1.883,0,0,1,.141-.212q2.978-3.278,5.958-6.552a.6.6,0,0,1,.86-.154.6.6,0,0,1,.064.923q-1.5,1.668-3,3.331l-2.682,2.974h11.314c.961,0,1.264.217,1.563,1.117v18.94a1.4,1.4,0,0,1-1,1.114Q825.914,420.154,812.655,420.156Zm26.279-1.254V400.215H812.986V418.9Z" transform="translate(0 0)" fill="#e45415" stroke="#e45415" stroke-width="0.2"/>
    <path id="Path_2811" data-name="Path 2811" d="M1098.68,678.634a1.4,1.4,0,0,0,1-1.114v1.114Z" transform="translate(-259.509 -258.478)" fill="#e45415"/>
    <path id="Path_2812" data-name="Path 2812" d="M855.468,494.368q4.888,0,9.776,0a1.218,1.218,0,0,1,1.307.9,2,2,0,0,1,.046.5q0,6.684,0,13.37a1.246,1.246,0,0,1-1.394,1.392h-19.5a1.251,1.251,0,0,1-1.388-1.375q0-6.7,0-13.4a1.243,1.243,0,0,1,1.4-1.383Q850.594,494.366,855.468,494.368Zm9.886,1.241H845.56v13.639h19.795Z" transform="translate(-29.527 -92.881)" fill="#fea400"/>
  </g>
</svg>
