<svg xmlns="http://www.w3.org/2000/svg" width="24.186" height="26.827" viewBox="0 0 24.186 26.827">
  <g id="water" transform="translate(-786.5 -347.9)">
    <path id="Path_2825" data-name="Path 2825" d="M804.364,348a2.318,2.318,0,0,1,.338.518,3.857,3.857,0,0,1,.259,1.856,3.078,3.078,0,0,1-2.357,2.606c-2.227.628-4.456,1.246-6.685,1.87-.344.1-.446.212-.447.539q-.005,2.542,0,5.086a1.41,1.41,0,0,0,.021.158l1.331-.352q4.154-1.113,8.307-2.225a3.981,3.981,0,0,1,5.016,2.863c.138.49.268.983.4,1.476.118.448.019.622-.421.747l-.262.075c.042.2.088.378.117.563a1.265,1.265,0,0,1-.862,1.449c-.749.236-1.513.421-2.271.627-.4.109-.8.22-1.2.318a1.327,1.327,0,0,1-1.693-.992c-.033-.114-.066-.228-.1-.357-1.063.283-2.1.559-3.145.838-1.66.444-3.318.895-4.98,1.33-.2.052-.257.129-.256.329.008,1.479.006,2.958,0,4.436a.324.324,0,0,0,.194.342,1.3,1.3,0,0,1,.7,1.193c.007.216-.005.433,0,.648a.649.649,0,0,1-.3.638h-9.136a.573.573,0,0,1-.32-.6c.017-.258,0-.519.008-.778a1.2,1.2,0,0,1,.627-1.067.442.442,0,0,0,.257-.463q-.008-8.731,0-17.463a3.123,3.123,0,0,1,2.537-3.189q6.105-1.312,12.214-2.608c.606-.129,1.208-.275,1.811-.413C804.157,348,804.261,348,804.364,348Zm-15.975,11.526v12.383h6.174V359.526Zm6.193-.907v-.308q0-1.388,0-2.776a1.384,1.384,0,0,1,1.195-1.566q3.268-.91,6.536-1.824a2.256,2.256,0,0,0,1.581-3.157,1.374,1.374,0,0,0-.173.017q-6.739,1.44-13.477,2.883a2.224,2.224,0,0,0-1.867,2.3q0,2.089,0,4.177c0,.082.009.164.015.251Zm.888,7.527,14.147-3.79c-.109-.4-.208-.769-.308-1.134a3.111,3.111,0,0,0-4-2.3q-4.792,1.286-9.585,2.568c-.188.05-.265.114-.264.323.01,1.35.005,2.7.005,4.048Zm-.033,7.534c.128-.742-.146-.883-.676-.879-2.032.017-4.065.007-6.1.007-.233,0-.467-.006-.7,0a.443.443,0,0,0-.471.473c-.006.127,0,.255,0,.4Zm9.284-9.091c.022.1.037.183.059.264.117.449.291.553.734.438.2-.052.4-.107.6-.16q1.276-.34,2.552-.682a.488.488,0,0,0,.409-.693c-.024-.1-.061-.192-.1-.307Z" transform="translate(0 0)" fill="#e45415" stroke="#e45415" stroke-width="0.2"/>
    <path id="Path_2826" data-name="Path 2826" d="M1058.112,626.169a3.285,3.285,0,0,1-1.408-.669,2.537,2.537,0,0,1-.758-2.728,18.487,18.487,0,0,1,2.209-4.034c.09-.137.187-.269.306-.439.268.4.535.763.772,1.148a20.438,20.438,0,0,1,1.71,3.22,2.638,2.638,0,0,1-1.938,3.447,1.643,1.643,0,0,0-.165.055Zm.347-6.293c-.167.269-.332.5-.462.752-.408.788-.859,1.559-1.186,2.379a1.738,1.738,0,0,0,2.894,1.75,1.554,1.554,0,0,0,.457-1.611A14.642,14.642,0,0,0,1058.459,619.877Z" transform="translate(-250.581 -251.593)" fill="#fea400" stroke="#fea400" stroke-width="0.3"/>
    <path id="Path_2827" data-name="Path 2827" d="M1049.8,572.893c-.2.053-.4.108-.6.16-.442.115-.617.01-.734-.438-.021-.082-.037-.165-.059-.264l4.255-1.14c.037.115.074.209.1.307a.489.489,0,0,1-.409.694" transform="translate(-243.69 -207.762)" fill="#fff"/>
  </g>
</svg>
