<svg xmlns="http://www.w3.org/2000/svg" xmlns:xlink="http://www.w3.org/1999/xlink" width="32.42" height="32.42" viewBox="0 0 32.42 32.42">
  <defs>
    <clipPath id="clip-path">
      <rect id="Rectangle_989" data-name="Rectangle 989" width="21.003" height="19.352" fill="none"/>
    </clipPath>
  </defs>
  <g id="refer" transform="translate(-32.5 -203.5)">
    <g id="Group_4388" data-name="Group 4388" transform="translate(0.5 1.5)">
      <circle id="Ellipse_422" data-name="Ellipse 422" cx="16.21" cy="16.21" r="16.21" transform="translate(32 202)" fill="none"/>
    </g>
    <g id="Group_5886" data-name="Group 5886" transform="translate(38.5 210.5)">
      <g id="Group_5885" data-name="Group 5885" transform="translate(0 0)" clip-path="url(#clip-path)">
        <path id="Path_4408" data-name="Path 4408" d="M175.041,106.25c-.089,0-.177-.01-.266-.01H162.957a6.165,6.165,0,0,1,3.58-6.161,4.447,4.447,0,1,1,4.916.008c.051.028.1.055.146.08a5.989,5.989,0,0,1,3.407,4.819,1.568,1.568,0,0,0,.036.156Zm-9.255-9.883a3.212,3.212,0,1,0,3.205-3.21,3.212,3.212,0,0,0-3.205,3.21m7.967,8.63a4.781,4.781,0,0,0-5.271-4.157,4.66,4.66,0,0,0-3.249,1.792,4.566,4.566,0,0,0-1,2.366Z" transform="translate(-154.038 -86.897)" fill="#fff"/>
        <path id="Path_4409" data-name="Path 4409" d="M0,9.752c.066-.3.112-.6.2-.893A4.516,4.516,0,0,1,2.316,6.2c.046-.027.091-.055.156-.1A3.4,3.4,0,0,1,1.2,3.015,3.252,3.252,0,0,1,2.347.841a3.393,3.393,0,0,1,4.732.253A3.431,3.431,0,0,1,6.7,6.1a4.686,4.686,0,0,1,2.445,4.675c-.063,0-.116.011-.169.011H.143c-.048,0-.1-.006-.143-.01V9.752M2.4,3.419A2.181,2.181,0,1,0,4.571,1.231,2.189,2.189,0,0,0,2.4,3.419M7.86,9.545a3.328,3.328,0,0,0-6.544,0Z" transform="translate(0 0)" fill="#fff"/>
        <path id="Path_4410" data-name="Path 4410" d="M0,220.3H1.224v3.54H5.7l-.727-.709.879-.871,2.2,2.2-2.206,2.207-.861-.86.73-.664-.031-.047c-.045,0-.089-.011-.134-.011H.122A1.134,1.134,0,0,0,0,225.1v-4.8" transform="translate(0 -208.252)" fill="#fff"/>
      </g>
    </g>
  </g>
</svg>
