<svg xmlns="http://www.w3.org/2000/svg" width="26.468" height="18.548" viewBox="0 0 26.468 18.548">
  <g id="Group_2089" data-name="Group 2089" transform="translate(77 -46)">
    <g id="Group_2085" data-name="Group 2085" transform="translate(-77 46)">
      <path id="Path_9626" data-name="Path 9626" d="M-60.455,49.17h-6.794V46.763a.763.763,0,0,0-1.206-.62l-8.293,5.894a.6.6,0,0,0-.252.49.6.6,0,0,0,.252.489l8.293,5.893a.763.763,0,0,0,1.206-.619V55.867h3.482l.208-.072V54.753l-.208-.072h-4.665v2.791l-6.958-4.945,6.958-4.946v2.777h7.977a.589.589,0,0,0,.418-.174.594.594,0,0,0,.173-.42A.592.592,0,0,0-60.455,49.17Z" transform="translate(77 -46)" fill="#e45415"/>
      <path id="Path_9627" data-name="Path 9627" d="M-63.558,168.913v1.042l-.208.072h-3.482v2.422a.763.763,0,0,1-1.206.619l-8.293-5.893a.6.6,0,0,1-.252-.489h1.61l6.958,4.945V168.84h4.665Z" transform="translate(77 -160.16)" fill="#e45415"/>
    </g>
    <g id="Group_2086" data-name="Group 2086" transform="translate(-67.669 51.496)">
      <path id="Path_9628" data-name="Path 9628" d="M112.434,153.679l-8.293-5.893a.763.763,0,0,0-1.206.619v2.422H99.452v1.187h4.665v-2.791l6.958,4.945-6.958,4.946v-2.777H96.14a.594.594,0,0,0,0,1.187h6.794v2.407a.763.763,0,0,0,1.206.62l8.293-5.894a.6.6,0,0,0,0-.979Z" transform="translate(-95.549 -147.642)" fill="#24a100"/>
      <path id="Path_9629" data-name="Path 9629" d="M112.686,268.313a.6.6,0,0,1-.252.49l-8.293,5.894a.763.763,0,0,1-1.206-.62v-2.407H96.14a.594.594,0,0,1,0-1.187h7.977v2.777l6.958-4.946Z" transform="translate(-95.549 -261.788)" fill="#24a100"/>
    </g>
  </g>
</svg>
