<svg xmlns="http://www.w3.org/2000/svg" width="32.42" height="32.42" viewBox="0 0 32.42 32.42">
  <g id="Group_3186" data-name="Group 3186" transform="translate(-18 -131)">
    <g id="Ellipse_434" data-name="Ellipse 434" transform="translate(18 131)" fill="#fff2ec" stroke="#e45415" stroke-width="1">
      <circle cx="16.21" cy="16.21" r="16.21" stroke="none"/>
      <circle cx="16.21" cy="16.21" r="15.71" fill="none"/>
    </g>
    <path id="Path_1771" data-name="Path 1771" d="M565.231,2387.107l-1.021-1.021a1.5,1.5,0,0,0-2.122,0l-.551.551a1.875,1.875,0,0,1-2.655,0l-2.188-2.188a1.875,1.875,0,0,1,0-2.655l.551-.551a1.5,1.5,0,0,0,0-2.122l-1.021-1.021a1.5,1.5,0,0,0-2.122,0h0a5.625,5.625,0,0,0,0,7.953l3.176,3.176a5.624,5.624,0,0,0,7.953,0h0A1.5,1.5,0,0,0,565.231,2387.107Z" transform="translate(-524.956 -2237.16)" fill="none" stroke="#e45415" stroke-linecap="round" stroke-linejoin="round" stroke-width="1"/>
  </g>
</svg>
