<svg xmlns="http://www.w3.org/2000/svg" xmlns:xlink="http://www.w3.org/1999/xlink" width="40.009" height="40.009" viewBox="0 0 40.009 40.009">
  <defs>
    <clipPath id="clip-path">
      <path id="Clip_2" data-name="Clip 2" d="M0,0H9.916V15.238H0Z" fill="none"/>
    </clipPath>
    <clipPath id="clip-path-2">
      <path id="Clip_5" data-name="Clip 5" d="M0,0H5.1V4.791H0Z" fill="none"/>
    </clipPath>
  </defs>
  <g id="Info" transform="translate(0.5 0.5)">
    <path id="Fill_1" data-name="Fill 1" d="M19.5,0A19.5,19.5,0,1,1,0,19.5,19.507,19.507,0,0,1,19.5,0" fill="#fff2ec" stroke="#e45415" stroke-width="1"/>
    <g id="icon" transform="translate(13.932 8.978)">
      <g id="Group_3" data-name="Group 3" transform="translate(0 5.956)">
        <path id="Clip_2-2" data-name="Clip 2" d="M0,0H9.916V15.238H0Z" transform="translate(0 0)" fill="none"/>
        <g id="Group_3-2" data-name="Group 3" transform="translate(0 0)" clip-path="url(#clip-path)">
          <path id="Fill_1-2" data-name="Fill 1" d="M6.927,0a3.105,3.105,0,0,1,.936.119A1.77,1.77,0,0,1,9.2,1.819a4.707,4.707,0,0,1-.352,1.936Q7.578,7.08,6.292,10.4a9.046,9.046,0,0,0-.484,1.362.981.981,0,0,0-.02.483.387.387,0,0,0,.441.3,1.14,1.14,0,0,0,.492-.19,5.96,5.96,0,0,0,1.116-.967c.363-.376.718-.761,1.079-1.141a2.618,2.618,0,0,1,.42-.373.289.289,0,0,1,.413.033.482.482,0,0,1,.144.512,2.023,2.023,0,0,1-.323.611,9.309,9.309,0,0,1-1.509,1.624,11.319,11.319,0,0,1-3.648,2.236,5.358,5.358,0,0,1-2.06.34,2.809,2.809,0,0,1-.613-.1A1.61,1.61,0,0,1,.5,13.373,8.919,8.919,0,0,1,.98,11.092c.378-1.215.9-2.372,1.388-3.547C2.98,6.057,3.6,4.571,4.218,3.084a.954.954,0,0,0,.1-.6.418.418,0,0,0-.449-.345,1.421,1.421,0,0,0-.71.272,4.869,4.869,0,0,0-.891.777c-.363.39-.716.789-1.076,1.183a3.031,3.031,0,0,1-.531.492.364.364,0,0,1-.477,0,.411.411,0,0,1-.162-.47,1.409,1.409,0,0,1,.185-.368,5.1,5.1,0,0,1,.554-.693A12.063,12.063,0,0,1,3.553.968,6.907,6.907,0,0,1,6.927,0" transform="translate(0 0)" fill="#e45415"/>
        </g>
      </g>
      <g id="Group_6" data-name="Group 6" transform="translate(6.071 0)">
        <path id="Clip_5-2" data-name="Clip 5" d="M0,0H5.1V4.791H0Z" transform="translate(0 0)" fill="none"/>
        <g id="Group_6-2" data-name="Group 6" transform="translate(0 0)" clip-path="url(#clip-path-2)">
          <path id="Fill_4" data-name="Fill 4" d="M2.626,0h.267A2.787,2.787,0,0,1,3.921.254,2.131,2.131,0,0,1,5.074,2.533,2.662,2.662,0,0,1,2.831,4.745,2.873,2.873,0,0,1,1.316,4.62,2.075,2.075,0,0,1,.005,2.437,2.7,2.7,0,0,1,2.362.032C2.45.02,2.538.011,2.626,0" transform="translate(0)" fill="#e45415"/>
        </g>
      </g>
    </g>
  </g>
</svg>
