<svg xmlns="http://www.w3.org/2000/svg" width="32.42" height="32.42" viewBox="0 0 32.42 32.42">
  <g id="Group_3116" data-name="Group 3116" transform="translate(-19 -435)">
    <g id="Ellipse_445" data-name="Ellipse 445" transform="translate(19 435)" fill="#fff2ec" stroke="#e45415" stroke-width="1">
      <circle cx="16.21" cy="16.21" r="16.21" stroke="none"/>
      <circle cx="16.21" cy="16.21" r="15.71" fill="none"/>
    </g>
    <g id="telephone" transform="translate(-742 87.1)">
      <path id="Path_2799" data-name="Path 2799" d="M785.432,358.977v10.557a1.2,1.2,0,0,1-1.35.9c-3.118-.014-6.237-.006-9.356-.006h-.209c-.017.068-.029.112-.039.156A2.526,2.526,0,0,1,772,372.606c-.51.006-1.021.009-1.531,0a2.517,2.517,0,0,1-2.371-1.857c-.036-.13-.063-.263-.094-.395v-4.563a.742.742,0,0,0,.03-.1,2.546,2.546,0,0,1,1.984-2.105l.165-.037v-.216q0-2.067,0-4.135a1.079,1.079,0,0,1,1.1-1.114c.112,0,.223,0,.355,0,0-.152,0-.281,0-.41a1.789,1.789,0,0,1,1.758-1.764q.8-.021,1.6,0a1.781,1.781,0,0,1,1.689,1.5c.033.216.033.437.049.672H782.5c.6,0,1.2,0,1.8,0a1.073,1.073,0,0,1,1.1.835A.321.321,0,0,0,785.432,358.977ZM775.261,369.7h8.964c.358,0,.484-.124.484-.477q0-4.97,0-9.94c0-.356-.124-.479-.481-.479h-7.511v8.239a1.821,1.821,0,0,1-1.352,1.875c-.041.014-.1.068-.1.105C775.256,369.245,775.261,369.465,775.261,369.7Zm-2.9-7.268q0,2.332,0,4.663a1.082,1.082,0,0,0,1.137,1.148c.453,0,.907,0,1.361,0a1.29,1.29,0,0,0,.287-.027,1.1,1.1,0,0,0,.849-1.142q0-2.425,0-4.85,0-2.221,0-4.442a1.093,1.093,0,0,0-1.165-1.159h-1.293a1.094,1.094,0,0,0-1.176,1.18Q772.357,360.123,772.358,362.437Zm-2.179,1.864c-.038.007-.06.01-.081.015a1.8,1.8,0,0,0-1.37,1.752c-.013,1.333-.017,2.666,0,4a1.8,1.8,0,0,0,1.868,1.818c.482,0,.964.006,1.446,0a1.805,1.805,0,0,0,1.691-1.3c.013-.046.018-.094.029-.158h-.208q-1.1,0-2.195,0a1.09,1.09,0,0,1-1.181-1.189q0-2.365,0-4.73Zm2.9,5.4c0-.222-.005-.424,0-.627,0-.106-.033-.146-.135-.172a1.421,1.421,0,0,1-.346-.138,1.8,1.8,0,0,1-.97-1.691q0-4.017,0-8.033v-.214c-.539-.073-.739.023-.737.581.011,3.256,0,6.513.005,9.77a1.277,1.277,0,0,0,.011.22.341.341,0,0,0,.338.3C771.852,369.706,772.453,369.7,773.082,369.7Zm1.444-.007v-.7h-.7v.7Z" transform="translate(0)" fill="#e45415"/>
      <path id="Path_2800" data-name="Path 2800" d="M979.192,438.807H976.42c-.367,0-.49-.124-.491-.49q0-.978,0-1.956c0-.331.133-.465.464-.465h5.613c.339,0,.459.123.46.464q0,.987,0,1.973c0,.357-.12.474-.484.474Zm2.541-2.168h-5.057v1.428h5.057Z" transform="translate(-198.489 -76.364)" fill="#e45415"/>
      <path id="Path_2801" data-name="Path 2801" d="M984.7,515.951c.108,0,.215,0,.323,0a.358.358,0,0,1,.389.36c.011.243.011.487,0,.73a.35.35,0,0,1-.355.36c-.243.011-.487.011-.73,0a.357.357,0,0,1-.365-.385q-.006-.34,0-.679a.361.361,0,0,1,.381-.386C984.465,515.949,984.584,515.951,984.7,515.951Z" transform="translate(-206.159 -152.785)" fill="#fea400"/>
      <path id="Path_2802" data-name="Path 2802" d="M1031.981,516.653c0-.119,0-.238,0-.356a.359.359,0,0,1,.378-.372c.232-.005.464,0,.7,0a.347.347,0,0,1,.373.339,7.24,7.24,0,0,1,0,.763.35.35,0,0,1-.367.348c-.237.009-.476.009-.713,0a.359.359,0,0,1-.368-.383C1031.978,516.879,1031.981,516.766,1031.981,516.653Z" transform="translate(-251.996 -152.757)" fill="#fea400"/>
      <path id="Path_2803" data-name="Path 2803" d="M1080.674,515.947c.113,0,.226,0,.339,0a.358.358,0,0,1,.384.366c.01.237.01.476,0,.713a.36.36,0,0,1-.379.374c-.232.008-.465.009-.7,0a.361.361,0,0,1-.376-.392c0-.227,0-.453,0-.679a.361.361,0,0,1,.386-.381C1080.447,515.945,1080.561,515.947,1080.674,515.947Z" transform="translate(-297.783 -152.781)" fill="#fea400"/>
      <path id="Path_2804" data-name="Path 2804" d="M983.981,564.663c0-.119,0-.238,0-.356a.359.359,0,0,1,.378-.372c.232,0,.464,0,.7,0a.347.347,0,0,1,.373.339,7.309,7.309,0,0,1,0,.764.35.35,0,0,1-.367.348c-.237.009-.476.01-.713,0a.359.359,0,0,1-.368-.383C983.978,564.889,983.981,564.776,983.981,564.663Z" transform="translate(-206.175 -198.588)" fill="#fea400"/>
      <path id="Path_2805" data-name="Path 2805" d="M1032.688,563.959c.113,0,.227,0,.34,0a.354.354,0,0,1,.378.354c.012.248.012.5,0,.747a.351.351,0,0,1-.365.351c-.237.01-.476.01-.713,0a.362.362,0,0,1-.371-.4c0-.221,0-.442,0-.662a.363.363,0,0,1,.392-.393C1032.462,563.957,1032.575,563.959,1032.688,563.959Z" transform="translate(-251.971 -198.614)" fill="#fea400"/>
      <path id="Path_2806" data-name="Path 2806" d="M1079.977,564.632c0-.119,0-.238,0-.356a.354.354,0,0,1,.357-.357c.243-.007.487-.007.73,0a.348.348,0,0,1,.361.352c.012.248.012.5,0,.747a.35.35,0,0,1-.365.351c-.237.01-.476.01-.713,0a.363.363,0,0,1-.372-.4c0-.113,0-.227,0-.34Z" transform="translate(-297.812 -198.57)" fill="#fea400"/>
      <path id="Path_2807" data-name="Path 2807" d="M983.977,612.666c0-.113,0-.227,0-.34a.361.361,0,0,1,.386-.381c.227,0,.453,0,.679,0a.356.356,0,0,1,.385.365c.01.243.01.487,0,.73a.35.35,0,0,1-.359.356c-.243.01-.487.011-.73,0a.358.358,0,0,1-.36-.39C983.975,612.893,983.977,612.779,983.977,612.666Z" transform="translate(-206.172 -244.42)" fill="#fea400"/>
      <path id="Path_2808" data-name="Path 2808" d="M1031.981,612.657c0-.119,0-.238,0-.356a.356.356,0,0,1,.364-.368c.238-.006.475-.006.713,0a.352.352,0,0,1,.373.359c.011.243.011.487,0,.73a.355.355,0,0,1-.372.362c-.232.009-.464.009-.7,0a.366.366,0,0,1-.382-.4C1031.979,612.872,1031.981,612.764,1031.981,612.657Z" transform="translate(-251.996 -244.405)" fill="#fea400"/>
      <path id="Path_2809" data-name="Path 2809" d="M1080.668,611.965c.113,0,.227,0,.34,0a.357.357,0,0,1,.388.362c.011.243.011.487,0,.73a.349.349,0,0,1-.357.359c-.243.011-.487.011-.73,0a.357.357,0,0,1-.363-.387q-.006-.34,0-.679a.361.361,0,0,1,.382-.384C1080.442,611.962,1080.555,611.965,1080.668,611.965Z" transform="translate(-297.781 -244.44)" fill="#fea400"/>
    </g>
  </g>
</svg>
