<svg id="right_left_arrow" xmlns="http://www.w3.org/2000/svg" width="10.84" height="9.654" viewBox="0 0 10.84 9.654">
  <path id="Fill_1" data-name="Fill 1" d="M0,9.654H10.84V0H0Z" fill="none"/>
  <g id="Group_5787" data-name="Group 5787" transform="translate(0 -2.396)">
    <path id="Fill_7" data-name="Fill 7" d="M6.016.5h0a.5.5,0,0,0-.5-.5H.5a.5.5,0,1,0,0,1H5.514a.5.5,0,0,0,.5-.5" transform="translate(1.91 6.722)" fill="#333"/>
    <path id="Fill_9" data-name="Fill 9" d="M.147,3.155a.5.5,0,0,0,.709.709l1.5-1.5a.5.5,0,0,0,0-.709L.856.147A.5.5,0,0,0,.147.856L1.3,2.006Z" transform="translate(6.423 5.218)" fill="#333"/>
  </g>
</svg>
