<svg xmlns="http://www.w3.org/2000/svg" width="17.414" height="18.449" viewBox="0 0 17.414 18.449">
  <path id="Path_3691" data-name="Path 3691" d="M12.932,17.377a7.088,7.088,0,0,1-.983-.3,3.026,3.026,0,0,1-1.666-3.527l.032-.13c-.045-.026-.091-.055-.14-.08Q7.933,12.2,5.693,11.049c-.131-.067-.188-.044-.274.063A3.045,3.045,0,0,1,.008,9.01,2.9,2.9,0,0,1,1.947,6.36a2.921,2.921,0,0,1,3.267.691.2.2,0,0,0,.3.04q2.358-1.427,4.722-2.842l.153-.095a3.023,3.023,0,0,1,.177-2.571A2.92,2.92,0,0,1,12.138.205a3.052,3.052,0,0,1,3.04,5.2,3.077,3.077,0,0,1-4.272-.371c-.046.026-.094.051-.142.08Q8.4,6.537,6.038,7.953c-.121.072-.148.131-.1.265A2.806,2.806,0,0,1,6.02,9.87a.2.2,0,0,0,.125.274q2.223,1.126,4.44,2.264c.06.031.121.059.187.091.122-.13.234-.265.362-.383a2.931,2.931,0,0,1,3.034-.7,2.919,2.919,0,0,1,2.071,2.362,3.045,3.045,0,0,1-2.567,3.559,1.135,1.135,0,0,0-.129.034Zm.3-16.362a2.036,2.036,0,1,0,2.038,2.039,2.043,2.043,0,0,0-2.038-2.039M3.052,7.159A2.036,2.036,0,1,0,5.088,9.2,2.043,2.043,0,0,0,3.052,7.159M11.2,14.323a2.037,2.037,0,1,0,2.039-2.038A2.043,2.043,0,0,0,11.2,14.323" transform="translate(0.505 0.572)" fill="#fff" stroke="#fff" stroke-width="1"/>
</svg>
