<svg xmlns="http://www.w3.org/2000/svg" width="12.768" height="12.208" viewBox="0 0 12.768 12.208">
  <g id="Group_1076" data-name="Group 1076" transform="translate(-1304.94 1793.04)">
    <line id="Line_139" data-name="Line 139" y2="5.893" transform="translate(1308.827 -1787.325)" fill="none" stroke="#fff" stroke-linecap="round" stroke-linejoin="round" stroke-width="1.2"/>
    <path id="Path_1048" data-name="Path 1048" d="M1310.62-1781.438h4.412a1.406,1.406,0,0,0,1.391-1.192l.665-4.3a1.364,1.364,0,0,0-1.349-1.574h-3.191v-2.551a1.385,1.385,0,0,0-1.385-1.385h-.019a.751.751,0,0,0-.739.63h0a13.168,13.168,0,0,1-1.16,3.637l-.411.845h-2.416a.876.876,0,0,0-.877.877v4.139a.876.876,0,0,0,.877.877h2.41" fill="none" stroke="#fff" stroke-linecap="round" stroke-linejoin="round" stroke-width="1.2"/>
  </g>
</svg>
