<svg xmlns="http://www.w3.org/2000/svg" width="9.401" height="7.521" viewBox="0 0 9.401 7.521">
  <path id="user-group-solid" d="M3.29,3.761A1.88,1.88,0,1,0,1.41,1.88,1.88,1.88,0,0,0,3.29,3.761Zm.745.705H2.546A2.546,2.546,0,0,0,0,7.011a.509.509,0,0,0,.509.51H6.071a.509.509,0,0,0,.51-.51A2.546,2.546,0,0,0,4.035,4.466Zm3,.235H5.953a2.976,2.976,0,0,1,1.1,2.311.97.97,0,0,1-.147.51H8.931a.474.474,0,0,0,.47-.483A2.35,2.35,0,0,0,7.038,4.7Zm-.692-.94A1.645,1.645,0,1,0,5.366.8a2.329,2.329,0,0,1,.275,1.08,2.331,2.331,0,0,1-.464,1.391A1.64,1.64,0,0,0,6.346,3.761Z" fill="#546275"/>
</svg>
