<svg xmlns="http://www.w3.org/2000/svg" xmlns:xlink="http://www.w3.org/1999/xlink" width="25" height="25" viewBox="0 0 25 25">
  <defs>
    <clipPath id="clip-path">
      <rect id="Rectangle_950" data-name="Rectangle 950" width="25" height="25" transform="translate(0.1 0.1)" fill="none"/>
    </clipPath>
  </defs>
  <g id="voting" transform="translate(-30.777 -452.777)">
    <g id="Group_5457" data-name="Group 5457" transform="translate(30.678 452.678)">
      <g id="Group_5456" data-name="Group 5456" transform="translate(0 0)" clip-path="url(#clip-path)">
        <path id="Path_4404" data-name="Path 4404" d="M0,23.7a.675.675,0,0,1,.69-.35c.434.019.87,0,1.344,0V12.978c0-.079,0-.159,0-.238a.505.505,0,0,1,.564-.556c.832,0,1.665,0,2.5,0h.271c-.049-.326-.11-.634-.139-.945A6.266,6.266,0,0,1,9.985,4.519q2.268-.569,4.534-1.149c.06-.015.118-.04.19-.064a1.364,1.364,0,0,1,0-1.29A6.566,6.566,0,0,1,16.572.145,1.722,1.722,0,0,1,16.942,0h.523a2.538,2.538,0,0,1,1.14.769q2.5,2.513,5.008,5.008A2.5,2.5,0,0,1,24.366,6.9v.523a4.32,4.32,0,0,1-.443.8c-.362.419-.774.795-1.17,1.184a1.5,1.5,0,0,1-.862.416,1.653,1.653,0,0,1-1.11-.272c-.053.078-.1.143-.141.209-.755,1.163-1.527,2.315-2.259,3.492a10.742,10.742,0,0,1-1.947,2.413.5.5,0,0,0-.173.415q.008,3.5,0,6.993v.284h.281c.412,0,.825-.007,1.237.006a.5.5,0,0,1,.485.577.592.592,0,0,1-.374.428H.381L0,23.985V23.7M9,12.176c.082-.138.151-.272.236-.394a3.142,3.142,0,0,1,5.2.074.552.552,0,0,1-.07.856q-.965.969-1.932,1.936c-.627.629-1.263,1.249-1.879,1.888a1.262,1.262,0,0,0,.428,2.145,1.286,1.286,0,0,0,1.4-.345q2.027-2.06,4.054-4.119a3.023,3.023,0,0,0,.388-.447q1.547-2.368,3.081-4.744c.046-.071.088-.144.128-.211-.027-.034-.04-.054-.057-.071q-2.2-2.225-4.4-4.452a.28.28,0,0,0-.317-.069c-1.664.425-3.331.839-4.994,1.268A5.244,5.244,0,0,0,6.213,10.5a4.624,4.624,0,0,0,.239,1.675ZM3.059,23.321H15.227V16.947l-.052-.038c-.059.072-.112.148-.177.214-.679.689-1.343,1.395-2.044,2.06a2.277,2.277,0,0,1-3.321-.235A2.327,2.327,0,0,1,9.862,15.8c.784-.8,1.577-1.586,2.37-2.374a.854.854,0,0,1,.233-.118l-.084-.1H3.059Zm18.6-14.458a2.291,2.291,0,0,0,.437-.252c.337-.312.655-.645.98-.97.361-.362.36-.6,0-.964l-5.4-5.4c-.045-.045-.088-.091-.137-.132a.489.489,0,0,0-.689.011q-.573.553-1.127,1.126a.49.49,0,0,0,0,.707c.105.118.223.225.335.337q2.615,2.646,5.233,5.29a2.222,2.222,0,0,0,.37.243m-8.28,3.308a2.05,2.05,0,0,0-3.107,0Z" transform="translate(0.417 0.417)" fill="#ffffff"/>
        <path id="Path_4405" data-name="Path 4405" d="M0,378l.381.381H0V378" transform="translate(0.417 -353.598)" fill="#ffffff"/>
      </g>
    </g>
    <g id="Rectangle_951" data-name="Rectangle 951" transform="translate(35.777 467.777)" fill="none" stroke="#ffffff" stroke-width="0.7">
      <rect width="3" height="3" stroke="none"/>
      <rect x="0.35" y="0.35" width="2.3" height="2.3" fill="none"/>
    </g>
  </g>
</svg>
