<svg xmlns="http://www.w3.org/2000/svg" width="32.42" height="32.42" viewBox="0 0 32.42 32.42">
  <g id="Group_5473" data-name="Group 5473" transform="translate(-18 -302)">
    <g id="Ellipse_447" data-name="Ellipse 447" transform="translate(18 302)" fill="#fff2ec" stroke="#e45415" stroke-width="1">
      <circle cx="16.21" cy="16.21" r="16.21" stroke="none"/>
      <circle cx="16.21" cy="16.21" r="15.71" fill="none"/>
    </g>
    <g id="Group_2084" data-name="Group 2084" transform="translate(-713.633 -2630.493)">
      <path id="Path_1881" data-name="Path 1881" d="M744.7,2956.89l-3.194,3.194a2.984,2.984,0,0,0,0,4.219h0a2.985,2.985,0,0,0,4.219,0l3.194-3.194" transform="translate(0 -9.259)" fill="none" stroke="#e45415" stroke-linecap="round" stroke-linejoin="round" stroke-width="1.3"/>
      <path id="Path_1882" data-name="Path 1882" d="M760.489,2949.68l3.1-3.1a2.984,2.984,0,0,0,0-4.219h0a2.984,2.984,0,0,0-4.219,0l-3.1,3.1" transform="translate(-9.404 0)" fill="none" stroke="#e45415" stroke-linecap="round" stroke-linejoin="round" stroke-width="1.3"/>
      <line id="Line_876" data-name="Line 876" y1="3.676" x2="3.672" transform="translate(746.005 2946.865)" fill="none" stroke="#e45415" stroke-linecap="round" stroke-linejoin="round" stroke-width="1.3"/>
    </g>
  </g>
</svg>
