<svg xmlns="http://www.w3.org/2000/svg" width="37.962" height="37.962" viewBox="0 0 37.962 37.962">
  <g id="Group_5493" data-name="Group 5493" transform="translate(-113 -450.246)">
    <rect id="Rectangle_956" data-name="Rectangle 956" width="37.962" height="37.962" rx="18.981" transform="translate(113 450.246)" fill="#0077b5"/>
    <path id="linkedin-in-brands" d="M3.511,15.7H.259V5.223H3.511ZM1.883,3.795a1.892,1.892,0,1,1,1.883-1.9A1.9,1.9,0,0,1,1.883,3.795Zm13.8,11.9H12.437V10.6c0-1.215-.025-2.773-1.691-2.773-1.691,0-1.95,1.32-1.95,2.686V15.7H5.548V5.223H8.667V6.652h.046A3.417,3.417,0,0,1,11.79,4.961c3.291,0,3.9,2.167,3.9,4.982V15.7Z" transform="translate(124.138 461.374)" fill="#fff"/>
  </g>
</svg>
