<svg xmlns="http://www.w3.org/2000/svg" width="37.962" height="37.962" viewBox="0 0 37.962 37.962">
  <g id="Group_5491" data-name="Group 5491" transform="translate(-168.035 -450.246)">
    <rect id="Rectangle_956" data-name="Rectangle 956" width="37.962" height="37.962" rx="18.981" transform="translate(168.035 450.246)"/>
    <path id="tiktok-brands" d="M15.207,7.067a7.072,7.072,0,0,1-4.134-1.321v6.017A5.473,5.473,0,1,1,6.352,6.34V9.367a2.512,2.512,0,1,0,1.759,2.4V0h2.963a4.08,4.08,0,0,0,.063.746h0a4.114,4.114,0,0,0,1.815,2.7,4.088,4.088,0,0,0,2.256.678Z" transform="translate(179.349 460.61)" fill="#fff"/>
  </g>
</svg>
