<?xml version="1.0" encoding="utf-8"?>
<!-- Generator: Adobe Illustrator 26.5.0, SVG Export Plug-In . SVG Version: 6.00 Build 0)  -->
<svg version="1.1" id="Layer_1" xmlns="http://www.w3.org/2000/svg" xmlns:xlink="http://www.w3.org/1999/xlink" x="0px" y="0px"
	 viewBox="0 0 29.3 20.8" style="enable-background:new 0 0 29.3 20.8;" xml:space="preserve">
<style type="text/css">
	.st0{fill:#FFF2EC;}
	.st1{fill:#7D90AA;}
	.st2{fill:#FFFFFF;}
</style>
<path class="st0" d="M28.7,20.2c-2.5,0-5,0-7.5,0c0-3.1,0-6.2,0-9.4c2.5,0,5,0,7.5,0C28.7,13.9,28.7,17.1,28.7,20.2z M23.3,12.7
	c-0.2,0-0.5,0-0.7,0c-0.3,0-0.5,0.2-0.5,0.5c0,0.3,0.2,0.5,0.5,0.5c0.5,0,1,0,1.4,0c0.3,0,0.5-0.2,0.5-0.5c0-0.3-0.2-0.5-0.5-0.5
	C23.8,12.7,23.6,12.7,23.3,12.7z M26.6,13.6c0.2,0,0.5,0,0.7,0c0.3,0,0.5-0.2,0.5-0.5c0-0.3-0.2-0.5-0.5-0.5c-0.4,0-0.9,0-1.3,0
	c-0.3,0-0.5,0.2-0.5,0.5c0,0.3,0.2,0.5,0.5,0.5C26.2,13.6,26.4,13.6,26.6,13.6z M23.3,16c0.2,0,0.5,0,0.7,0c0.3,0,0.5-0.2,0.5-0.5
	c0-0.3-0.2-0.5-0.5-0.5c-0.5,0-0.9,0-1.4,0c-0.3,0-0.5,0.2-0.5,0.5c0,0.3,0.2,0.5,0.5,0.5C22.9,16,23.1,16,23.3,16z M26.6,16
	C26.6,16,26.6,16,26.6,16c0.2,0,0.4,0,0.7,0c0,0,0,0,0,0c0.3,0,0.5-0.2,0.5-0.5c0-0.3-0.2-0.5-0.5-0.5c-0.5,0-0.9,0-1.4,0
	c-0.3,0-0.5,0.2-0.5,0.5c0,0.3,0.2,0.5,0.5,0.5C26.1,16,26.4,16,26.6,16z M23.3,18.3c0.2,0,0.5,0,0.7,0c0.3,0,0.5-0.2,0.5-0.5
	c0-0.3-0.2-0.5-0.5-0.5c-0.5,0-0.9,0-1.4,0c-0.3,0-0.5,0.2-0.5,0.5c0,0.3,0.2,0.5,0.5,0.5C22.9,18.3,23.1,18.3,23.3,18.3z
	 M26.6,18.3c0.2,0,0.5,0,0.7,0c0.3,0,0.5-0.2,0.5-0.5c0-0.3-0.2-0.5-0.5-0.5c-0.5,0-0.9,0-1.4,0c-0.3,0-0.5,0.2-0.5,0.5
	c0,0.3,0.2,0.4,0.5,0.5C26.2,18.3,26.4,18.3,26.6,18.3z"/>
<path class="st0" d="M10,3.3c3.4,0,6.9,0,10.3,0c0,5.6,0,11.3,0,16.9c-0.9,0-1.8,0-2.8,0c0-0.1,0-0.2,0-0.2c0-1,0-2.1,0-3.1
	c0-0.8-0.5-1.3-1.3-1.3c-0.7,0-1.4,0-2.2,0c-0.8,0-1.3,0.5-1.3,1.3c0,1,0,2.1,0,3.1c0,0.1,0,0.2,0,0.3c-0.9,0-1.9,0-2.8,0
	C10,14.6,10,8.9,10,3.3z M13,5.2c-0.3,0-0.5,0-0.8,0c-0.5,0-0.9,0.4-0.9,0.9c0,0.5,0,1,0,1.5c0,0.5,0.4,0.9,0.9,0.9c0.5,0,1,0,1.5,0
	c0.5,0,0.9-0.4,0.9-0.9c0-0.5,0-1,0-1.5c0-0.5-0.4-0.9-0.9-0.9C13.5,5.2,13.3,5.2,13,5.2z M18.9,6.8c0-0.3,0-0.5,0-0.8
	c0-0.5-0.4-0.9-0.9-0.9c-0.5,0-1,0-1.5,0c-0.5,0-0.9,0.4-0.9,0.9c0,0.5,0,1,0,1.6c0,0.5,0.4,0.8,0.8,0.9c0.5,0,1.1,0,1.6,0
	c0.5,0,0.8-0.4,0.8-0.9C18.9,7.3,18.9,7.1,18.9,6.8z M14.6,12c0-0.3,0-0.5,0-0.8c0-0.5-0.4-0.9-0.9-0.9c-0.5,0-1,0-1.6,0
	c-0.5,0-0.9,0.4-0.9,0.9c0,0.5,0,1,0,1.5c0,0.5,0.4,0.9,0.9,0.9c0.5,0,1,0,1.6,0c0.5,0,0.9-0.4,0.9-0.9C14.6,12.5,14.6,12.2,14.6,12
	z M17.2,13.6c0.3,0,0.5,0,0.8,0c0.5,0,0.8-0.4,0.8-0.8c0-0.5,0-1.1,0-1.6c0-0.5-0.4-0.8-0.8-0.8c-0.5,0-1.1,0-1.6,0
	c-0.5,0-0.8,0.4-0.8,0.8c0,0.5,0,1.1,0,1.6c0,0.5,0.4,0.8,0.9,0.9C16.7,13.6,17,13.6,17.2,13.6z"/>
<path class="st0" d="M8.9,20.2c-2.5,0-5,0-7.5,0c0-3.1,0-6.2,0-9.4c2.5,0,5,0,7.5,0C8.9,13.9,8.9,17,8.9,20.2z M3.5,13.6
	c0.2,0,0.5,0,0.7,0c0.3,0,0.5-0.2,0.5-0.5c0-0.3-0.2-0.5-0.5-0.5c-0.5,0-0.9,0-1.4,0c-0.3,0-0.5,0.2-0.5,0.5c0,0.3,0.2,0.5,0.5,0.5
	C3.1,13.6,3.3,13.6,3.5,13.6z M6.9,13.6c0.2,0,0.5,0,0.7,0c0.3,0,0.5-0.2,0.5-0.5c0-0.3-0.2-0.5-0.5-0.5c-0.5,0-0.9,0-1.4,0
	c-0.3,0-0.5,0.2-0.5,0.5c0,0.3,0.2,0.5,0.5,0.5C6.4,13.6,6.6,13.6,6.9,13.6z M3.6,15.9c0.2,0,0.5,0,0.7,0c0.3,0,0.5-0.2,0.5-0.5
	c0-0.3-0.2-0.5-0.5-0.5c-0.5,0-0.9,0-1.4,0c-0.3,0-0.5,0.2-0.5,0.5c0,0.3,0.2,0.5,0.5,0.5C3.1,15.9,3.3,15.9,3.6,15.9z M6.9,15
	c-0.2,0-0.5,0-0.7,0c-0.3,0-0.5,0.2-0.5,0.5c0,0.3,0.2,0.5,0.5,0.5c0.5,0,0.9,0,1.4,0c0.3,0,0.5-0.2,0.5-0.5C8,15.2,7.8,15,7.5,15
	C7.3,15,7.1,15,6.9,15z M3.6,18.3c0.2,0,0.5,0,0.7,0c0.3,0,0.5-0.2,0.5-0.5c0-0.3-0.2-0.5-0.5-0.5c-0.5,0-0.9,0-1.4,0
	c-0.3,0-0.5,0.2-0.5,0.5c0,0.3,0.2,0.5,0.5,0.5C3.1,18.3,3.3,18.3,3.6,18.3z M6.9,18.3c0.2,0,0.5,0,0.7,0c0.3,0,0.5-0.2,0.5-0.5
	c0-0.3-0.2-0.5-0.5-0.5c-0.5,0-0.9,0-1.4,0c-0.3,0-0.5,0.2-0.5,0.5c0,0.3,0.2,0.5,0.5,0.5C6.4,18.3,6.6,18.3,6.9,18.3z"/>
<path class="st1" d="M8.5,9.4c0-2.2,0-4.4,0-6.6C8.1,2.8,7.7,2.6,7.7,2.2c-0.1-0.5-0.1-1,0-1.5c0-0.4,0.4-0.6,0.8-0.7
	c0.1,0,0.1,0,0.2,0c4,0,8,0,12,0c0.7,0,1,0.3,1,1c0,0.2,0,0.5,0,0.7c0,0.7-0.3,1-0.9,1.1c0,2.2,0,4.4,0,6.6c0.1,0,0.2,0,0.3,0
	c2.4,0,4.7,0,7.1,0c0.7,0,1.1,0.4,1.1,1.1c0,3,0,6.1,0,9.1c0,0.7-0.4,1.1-1.1,1.1c-5.2,0-10.4,0-15.6,0c-3.8,0-7.5,0-11.3,0
	c-0.7,0-1.1-0.4-1.1-1.1c0-3,0-6.1,0-9.1c0-0.7,0.4-1.1,1.1-1.1c2.3,0,4.7,0,7,0C8.3,9.4,8.4,9.4,8.5,9.4z M9.5,2.9
	c0,5.6,0,11.3,0,16.9c0.9,0,1.9,0,2.8,0c0-0.1,0-0.2,0-0.3c0-1,0-2.1,0-3.1c0-0.8,0.5-1.3,1.3-1.3c0.7,0,1.4,0,2.2,0
	c0.8,0,1.3,0.5,1.3,1.3c0,1,0,2.1,0,3.1c0,0.1,0,0.2,0,0.2c1,0,1.9,0,2.8,0c0-5.6,0-11.3,0-16.9C16.4,2.9,13,2.9,9.5,2.9z M8.5,19.8
	c0-3.1,0-6.3,0-9.4c-2.5,0-5,0-7.5,0c0,3.1,0,6.3,0,9.4C3.6,19.8,6,19.8,8.5,19.8z M28.3,19.8c0-3.1,0-6.3,0-9.4c-2.5,0-5,0-7.5,0
	c0,3.1,0,6.3,0,9.4C23.3,19.8,25.8,19.8,28.3,19.8z M20.8,1c-4.1,0-8.1,0-12.2,0c0,0.3,0,0.6,0,0.9c4.1,0,8.1,0,12.2,0
	C20.8,1.6,20.8,1.3,20.8,1z M16.1,19.8c0-0.1,0-0.1,0-0.1c0-1.1,0-2.2,0-3.3c0-0.2-0.1-0.3-0.3-0.3c-0.7,0-1.4,0-2.2,0
	c-0.3,0-0.3,0.1-0.3,0.4c0,1.1,0,2.1,0,3.2c0,0.1,0,0.1,0,0.2C14.2,19.8,15.1,19.8,16.1,19.8z"/>
<path class="st1" d="M12.6,4.7c0.3,0,0.5,0,0.8,0c0.5,0,0.9,0.4,0.9,0.9c0,0.5,0,1,0,1.5c0,0.5-0.4,0.9-0.9,0.9c-0.5,0-1,0-1.5,0
	c-0.5,0-0.9-0.4-0.9-0.9c0-0.5,0-1,0-1.5c0-0.5,0.4-0.9,0.9-0.9C12.1,4.7,12.3,4.7,12.6,4.7z M13.2,7.1c0-0.5,0-0.9,0-1.4
	c-0.5,0-0.9,0-1.4,0c0,0.5,0,0.9,0,1.4C12.3,7.1,12.8,7.1,13.2,7.1z"/>
<path class="st1" d="M18.4,6.4c0,0.3,0,0.5,0,0.8c0,0.5-0.4,0.8-0.8,0.9C17,8,16.5,8,16,8c-0.5,0-0.8-0.4-0.8-0.9c0-0.5,0-1,0-1.6
	c0-0.5,0.4-0.9,0.9-0.9c0.5,0,1,0,1.5,0c0.5,0,0.9,0.4,0.9,0.9C18.4,5.9,18.4,6.1,18.4,6.4z M17.5,5.7c-0.5,0-0.9,0-1.4,0
	c0,0.5,0,0.9,0,1.4c0.5,0,0.9,0,1.4,0C17.5,6.6,17.5,6.2,17.5,5.7z"/>
<path class="st1" d="M14.2,11.6c0,0.3,0,0.5,0,0.8c0,0.5-0.4,0.9-0.9,0.9c-0.5,0-1,0-1.6,0c-0.5,0-0.9-0.4-0.9-0.9c0-0.5,0-1,0-1.5
	c0-0.5,0.4-0.9,0.9-0.9c0.5,0,1,0,1.6,0c0.5,0,0.8,0.4,0.9,0.9C14.2,11,14.2,11.3,14.2,11.6z M11.8,12.2c0.5,0,0.9,0,1.4,0
	c0-0.5,0-0.9,0-1.4c-0.5,0-0.9,0-1.4,0C11.8,11.3,11.8,11.8,11.8,12.2z"/>
<path class="st1" d="M16.8,13.2c-0.3,0-0.5,0-0.8,0c-0.5,0-0.8-0.4-0.9-0.9c0-0.5,0-1.1,0-1.6c0-0.5,0.4-0.8,0.8-0.8
	c0.5,0,1.1,0,1.6,0c0.5,0,0.8,0.4,0.8,0.8c0,0.5,0,1.1,0,1.6c0,0.5-0.4,0.8-0.8,0.8C17.3,13.2,17,13.2,16.8,13.2z M16.1,12.3
	c0.5,0,0.9,0,1.4,0c0-0.5,0-0.9,0-1.4c-0.5,0-0.9,0-1.4,0C16.1,11.3,16.1,11.8,16.1,12.3z"/>
<path class="st1" d="M3.1,13.2c-0.2,0-0.4,0-0.7,0C2.2,13.2,2,13,2,12.7c0-0.3,0.2-0.5,0.5-0.5c0.5,0,0.9,0,1.4,0
	c0.3,0,0.5,0.2,0.5,0.5c0,0.3-0.2,0.5-0.5,0.5C3.6,13.2,3.4,13.2,3.1,13.2z"/>
<path class="st1" d="M6.4,13.2c-0.2,0-0.5,0-0.7,0c-0.3,0-0.5-0.2-0.5-0.5c0-0.3,0.2-0.5,0.5-0.5c0.5,0,0.9,0,1.4,0
	c0.3,0,0.5,0.2,0.5,0.5c0,0.3-0.2,0.5-0.5,0.5C6.9,13.2,6.7,13.2,6.4,13.2z"/>
<path class="st1" d="M3.1,15.6c-0.2,0-0.5,0-0.7,0c-0.3,0-0.5-0.2-0.5-0.5c0-0.3,0.2-0.5,0.5-0.5c0.5,0,0.9,0,1.4,0
	c0.3,0,0.5,0.2,0.5,0.5c0,0.3-0.2,0.5-0.5,0.5C3.6,15.6,3.4,15.6,3.1,15.6z"/>
<path class="st1" d="M6.5,14.6c0.2,0,0.4,0,0.7,0c0.3,0,0.5,0.2,0.5,0.5c0,0.3-0.2,0.5-0.5,0.5c-0.5,0-0.9,0-1.4,0
	c-0.3,0-0.5-0.2-0.5-0.5c0-0.3,0.2-0.5,0.5-0.5C6,14.6,6.2,14.6,6.5,14.6z"/>
<path class="st1" d="M3.1,17.9c-0.2,0-0.5,0-0.7,0c-0.3,0-0.5-0.2-0.5-0.5C2,17.2,2.2,17,2.5,17c0.5,0,0.9,0,1.4,0
	c0.3,0,0.5,0.2,0.5,0.5c0,0.3-0.2,0.4-0.5,0.5C3.6,17.9,3.4,17.9,3.1,17.9z"/>
<path class="st1" d="M6.4,17.9c-0.2,0-0.5,0-0.7,0c-0.3,0-0.5-0.2-0.5-0.5c0-0.3,0.2-0.5,0.5-0.5c0.5,0,0.9,0,1.4,0
	c0.3,0,0.5,0.2,0.5,0.5c0,0.3-0.2,0.4-0.5,0.5C6.9,17.9,6.7,17.9,6.4,17.9z"/>
<path class="st1" d="M22.9,12.3c0.2,0,0.5,0,0.7,0c0.3,0,0.5,0.2,0.5,0.5c0,0.3-0.2,0.5-0.5,0.5c-0.5,0-1,0-1.4,0
	c-0.3,0-0.5-0.2-0.5-0.5c0-0.3,0.2-0.5,0.5-0.5C22.4,12.3,22.7,12.3,22.9,12.3z"/>
<path class="st1" d="M26.2,13.2c-0.2,0-0.5,0-0.7,0c-0.3,0-0.5-0.2-0.5-0.5c0-0.3,0.2-0.5,0.5-0.5c0.4,0,0.9,0,1.3,0
	c0.3,0,0.5,0.2,0.5,0.5c0,0.3-0.2,0.5-0.5,0.5C26.6,13.2,26.4,13.2,26.2,13.2z"/>
<path class="st1" d="M22.9,15.6c-0.2,0-0.5,0-0.7,0c-0.3,0-0.5-0.2-0.5-0.5c0-0.3,0.2-0.5,0.5-0.5c0.5,0,0.9,0,1.4,0
	c0.3,0,0.5,0.2,0.5,0.5c0,0.3-0.2,0.5-0.5,0.5C23.3,15.6,23.1,15.6,22.9,15.6z"/>
<path class="st1" d="M26.2,15.6c-0.2,0-0.5,0-0.7,0c-0.3,0-0.5-0.2-0.5-0.5c0-0.3,0.2-0.5,0.5-0.5c0.5,0,0.9,0,1.4,0
	c0.3,0,0.5,0.2,0.5,0.5c0,0.3-0.2,0.5-0.5,0.5c0,0,0,0,0,0C26.6,15.6,26.4,15.6,26.2,15.6C26.2,15.6,26.2,15.6,26.2,15.6z"/>
<path class="st1" d="M22.9,17.9c-0.2,0-0.5,0-0.7,0c-0.3,0-0.5-0.2-0.5-0.5c0-0.3,0.2-0.5,0.5-0.5c0.5,0,0.9,0,1.4,0
	c0.3,0,0.5,0.2,0.5,0.5c0,0.3-0.2,0.5-0.5,0.5C23.3,17.9,23.1,17.9,22.9,17.9z"/>
<path class="st1" d="M26.1,17.9c-0.2,0-0.4,0-0.7,0c-0.3,0-0.5-0.2-0.5-0.5c0-0.3,0.2-0.5,0.5-0.5c0.5,0,0.9,0,1.4,0
	c0.3,0,0.5,0.2,0.5,0.5c0,0.3-0.2,0.5-0.5,0.5C26.6,17.9,26.4,17.9,26.1,17.9z"/>
<path class="st2" d="M16.1,12.3c0-0.5,0-0.9,0-1.4c0.5,0,0.9,0,1.4,0c0,0.5,0,0.9,0,1.4C17,12.3,16.6,12.3,16.1,12.3z"/>
</svg>
