<svg xmlns="http://www.w3.org/2000/svg" width="29.274" height="20.764" viewBox="0 0 29.274 20.764">
  <g id="Group_5680" data-name="Group 5680" transform="translate(0 -2.106)">
    <g id="Group_5681" data-name="Group 5681" transform="translate(0 2.106)">
      <path id="Path_4701" data-name="Path 4701" d="M29.274,54.06a.773.773,0,0,1-.776.406q-13.86-.011-27.721,0A.772.772,0,0,1,0,54.06v-.343c.98-1.692,1.94-3.4,2.954-5.067a.945.945,0,0,0-.01-1.212A14.143,14.143,0,0,1,2.2,46.175c-.368.635-.709,1.227-1.053,1.818S.345,48.576,0,48v-.343l1.569-2.676c.038-.066.074-.133.114-.2a.57.57,0,0,1,1.034,0c.361.6.706,1.218,1.059,1.828.047.081.1.159.167.272.068-.108.124-.19.174-.276l7.152-12.386c.033-.058.066-.116.1-.172a.571.571,0,0,1,1.047,0c.559.952,1.106,1.911,1.658,2.867l2.671,4.622c.056.1.116.191.194.319.1-.169.181-.3.26-.442q.956-1.657,1.912-3.313c.326-.563.811-.562,1.137,0q1.551,2.682,3.1,5.364a.612.612,0,0,1,.025.7.472.472,0,0,1-.567.226.979.979,0,0,1-.457-.382c-.846-1.434-1.673-2.88-2.506-4.322-.046-.08-.1-.157-.158-.256-.045.063-.081.105-.109.152-.629,1.087-1.26,2.173-1.879,3.266a.389.389,0,0,0,0,.327q2.866,4.988,5.751,9.964a.365.365,0,0,0,.252.169c1.314.011,2.629.007,3.994.007-.061-.116-.1-.2-.152-.289q-1.255-2.176-2.511-4.352a.58.58,0,0,1,.215-.894.561.561,0,0,1,.734.259c.208.341.4.691.6,1.037l2.688,4.64ZM1.586,53.3h20.63L16.1,42.7c-.088.082-.158.144-.224.21q-.809.807-1.618,1.616a.6.6,0,0,1-1,.007q-.76-.756-1.516-1.516l-1.045-1.05a1.326,1.326,0,0,0-.123.056c-1.23.744-2.461,1.485-3.686,2.237a.83.83,0,0,0-.257.292q-2.447,4.225-4.885,8.454c-.051.088-.095.179-.155.293m13.9-11.653-3.6-6.225-3.9,6.757c.8-.421,1.558-.878,2.313-1.336.437-.265.624-.246.98.109q1.122,1.12,2.239,2.244a1.119,1.119,0,0,1,.149.258l1.815-1.808" transform="translate(0 -33.702)" fill="#7d90aa"/>
      <path id="Path_4707" data-name="Path 4707" d="M310.4,189.636a.565.565,0,0,1-.582-.545.582.582,0,0,1,.574-.589.575.575,0,0,1,.565.567.558.558,0,0,1-.556.567" transform="translate(-286.2 -176.701)" fill="#7d90aa"/>
      <path id="Path_4709" data-name="Path 4709" d="M20.808,153.472c.06-.114.1-.205.155-.293q2.441-4.228,4.885-8.454a.83.83,0,0,1,.257-.292c1.225-.751,2.456-1.493,3.686-2.237a1.343,1.343,0,0,1,.123-.056l1.045,1.05q.757.759,1.516,1.516a.6.6,0,0,0,1-.007q.81-.806,1.618-1.616c.066-.066.136-.128.224-.21l6.119,10.6Z" transform="translate(-19.222 -133.873)" fill="#fff2ec"/>
    </g>
  </g>
</svg>
