<svg xmlns="http://www.w3.org/2000/svg" width="113.19" height="113.19" viewBox="0 0 113.19 113.19">
  <g id="plane_loader" transform="matrix(0.921, -0.391, 0.391, 0.921, -216.237, -125.324)">
    <path id="Stroke_1" data-name="Stroke 1" d="M40.008,50.037,14.8,48.82l-7.365,10.4H0L3.7,42.561,0,25.907H7.439l7.365,10.4,25.2-1.218.007-.011L33.309,0h7.4L62.787,33.949l-.019-.011,13.1-.629a9.252,9.252,0,1,1,0,18.5l-13.065-.625-.019-.011L40.711,85.123h-7.4l6.706-35.074" transform="translate(137.5 231.5)" fill="#fff2ec" stroke="#e45415" stroke-linecap="round" stroke-linejoin="round" stroke-width="1.2"/>
    <rect id="Rectangle_987" data-name="Rectangle 987" width="13.686" height="1.702" transform="translate(159.943 273.219)" fill="#fea400"/>
    <circle id="Ellipse_474" data-name="Ellipse 474" cx="3.831" cy="3.831" r="3.831" transform="translate(209.429 270.231)" fill="#fea400"/>
  </g>
</svg>
