<svg xmlns="http://www.w3.org/2000/svg" xmlns:xlink="http://www.w3.org/1999/xlink" width="36.963" height="36.963" viewBox="0 0 36.963 36.963">
  <defs>
    <linearGradient id="linear-gradient" x1="0.159" y1="-0.092" x2="0.841" y2="1.092" gradientUnits="objectBoundingBox">
      <stop offset="0.039" stop-color="#774adf"/>
      <stop offset="0.149" stop-color="#9748be"/>
      <stop offset="0.304" stop-color="#bd4697"/>
      <stop offset="0.447" stop-color="#d8447a"/>
      <stop offset="0.57" stop-color="#e94369"/>
      <stop offset="0.661" stop-color="#ef4363"/>
      <stop offset="0.722" stop-color="#ef545e"/>
      <stop offset="0.843" stop-color="#f08053"/>
      <stop offset="1" stop-color="#f2c141"/>
    </linearGradient>
  </defs>
  <g id="Group_5492" data-name="Group 5492" transform="translate(-168.534 -395.711)">
    <path id="Intersection_2" data-name="Intersection 2" d="M3249.31,11221.469a18.482,18.482,0,1,1,18.48,18.48A18.482,18.482,0,0,1,3249.31,11221.469Z" transform="translate(-3080.775 -10807.275)" fill="url(#linear-gradient)"/>
    <path id="instagram-brands" d="M8.165,35.838a4.223,4.223,0,1,0,4.223,4.223A4.217,4.217,0,0,0,8.165,35.838Zm0,6.969a2.746,2.746,0,1,1,2.746-2.746A2.751,2.751,0,0,1,8.165,42.807Zm5.381-7.142a.985.985,0,1,1-.985-.985A.983.983,0,0,1,13.546,35.665Zm2.8,1a4.875,4.875,0,0,0-1.331-3.451,4.907,4.907,0,0,0-3.451-1.331c-1.36-.077-5.436-.077-6.8,0A4.9,4.9,0,0,0,1.313,33.21,4.891,4.891,0,0,0-.017,36.661c-.077,1.36-.077,5.436,0,6.8a4.875,4.875,0,0,0,1.331,3.451,4.913,4.913,0,0,0,3.451,1.331c1.36.077,5.436.077,6.8,0a4.875,4.875,0,0,0,3.451-1.331,4.907,4.907,0,0,0,1.331-3.451C16.42,42.1,16.42,38.025,16.343,36.665Zm-1.757,8.252a2.78,2.78,0,0,1-1.566,1.566c-1.084.43-3.657.331-4.856.331s-3.775.1-4.856-.331a2.78,2.78,0,0,1-1.566-1.566c-.43-1.084-.331-3.657-.331-4.856s-.1-3.775.331-4.856A2.78,2.78,0,0,1,3.309,33.64c1.084-.43,3.657-.331,4.856-.331s3.775-.1,4.856.331a2.78,2.78,0,0,1,1.566,1.566c.43,1.084.331,3.657.331,4.856S15.016,43.836,14.586,44.917Z" transform="translate(178.754 374.028)" fill="#fff"/>
  </g>
</svg>
