<svg xmlns="http://www.w3.org/2000/svg" width="37.962" height="37.962" viewBox="0 0 37.962 37.962">
  <g id="Group_5489" data-name="Group 5489" transform="translate(-223.07 -395.211)">
    <rect id="Rectangle_956" data-name="Rectangle 956" width="37.962" height="37.962" rx="18.981" transform="translate(223.07 395.211)" fill="#1d9bf0"/>
    <path id="twitter-brands" d="M15.191,51.509c.011.15.011.3.011.451a9.806,9.806,0,0,1-9.873,9.873A9.806,9.806,0,0,1,0,60.276a7.179,7.179,0,0,0,.838.043,6.95,6.95,0,0,0,4.308-1.483A3.476,3.476,0,0,1,1.9,56.43a4.376,4.376,0,0,0,.655.054,3.67,3.67,0,0,0,.913-.118A3.471,3.471,0,0,1,.688,52.96v-.043a3.5,3.5,0,0,0,1.569.44,3.475,3.475,0,0,1-1.074-4.641,9.864,9.864,0,0,0,7.155,3.631,3.918,3.918,0,0,1-.086-.8,3.473,3.473,0,0,1,6.006-2.374,6.832,6.832,0,0,0,2.2-.838,3.461,3.461,0,0,1-1.526,1.912,6.957,6.957,0,0,0,2-.537A7.459,7.459,0,0,1,15.191,51.509Z" transform="translate(233.585 359.233)" fill="#fff"/>
  </g>
</svg>
