<svg xmlns="http://www.w3.org/2000/svg" width="37.962" height="37.962" viewBox="0 0 37.962 37.962">
  <g id="Group_5490" data-name="Group 5490" transform="translate(-223.07 -450.246)">
    <rect id="Rectangle_956" data-name="Rectangle 956" width="37.962" height="37.962" rx="18.981" transform="translate(223.07 450.246)" fill="#675da9"/>
    <path id="viber-brands" d="M28.06,1.759c-.438-.4-2.213-1.691-6.168-1.709,0,0-4.663-.28-6.934,1.805C13.694,3.119,13.249,4.972,13.2,7.268s-.107,6.6,4.038,7.763h0l0,1.781s-.028.721.449.866c.573.179.911-.369,1.46-.96.3-.324.714-.8,1.029-1.163a16.039,16.039,0,0,0,5.264-.387,5.184,5.184,0,0,0,4.339-4.9c.545-4.439-.262-7.242-1.719-8.508Zm.48,8.184a4.113,4.113,0,0,1-3.555,3.973,14.84,14.84,0,0,1-4.529.387s-1.795,2.164-2.354,2.727c-.183.183-.383.166-.38-.2,0-.238.014-2.958.014-2.958h0c-3.514-.973-3.307-4.636-3.269-6.551s.4-3.486,1.47-4.542C17.86,1.037,21.819,1.3,21.819,1.3c3.345.014,4.946,1.022,5.319,1.36C28.37,3.712,29,6.239,28.54,9.943Zm-4.8-2.789a.223.223,0,0,1-.445.021A1.067,1.067,0,0,0,22.171,6a.223.223,0,0,1,.024-.445A1.5,1.5,0,0,1,23.742,7.154Zm.7.39a2.579,2.579,0,0,0-2.616-2.737.223.223,0,0,1,.031-.445,3.023,3.023,0,0,1,3.031,3.193.223.223,0,0,1-.445-.01Zm1.622.463a.223.223,0,0,1-.445,0,4.069,4.069,0,0,0-4.17-4.363.223.223,0,0,1,0-.445A4.515,4.515,0,0,1,26.065,8.006Zm-.39,3.386V11.4c-.373.656-1.07,1.381-1.788,1.149l-.007-.01a13.268,13.268,0,0,1-3.528-1.95,9.024,9.024,0,0,1-1.464-1.464,11.2,11.2,0,0,1-1.063-1.608,10.314,10.314,0,0,1-.9-1.923c-.231-.718.49-1.415,1.149-1.788h.007a.628.628,0,0,1,.825.135s.428.511.611.763c.173.235.4.611.525.822a.721.721,0,0,1-.128.918l-.414.331a.607.607,0,0,0-.183.483,4.322,4.322,0,0,0,2.91,2.91.607.607,0,0,0,.483-.183l.331-.414a.721.721,0,0,1,.918-.128,8.944,8.944,0,0,1,1.581,1.136.617.617,0,0,1,.131.815Z" transform="translate(220.481 460.352)" fill="#fff"/>
  </g>
</svg>
